<?xml version="1.0" encoding="utf-8"?>
<!-- Generator: Adobe Illustrator 22.0.1, SVG Export Plug-In . SVG Version: 6.00 Build 0)  -->
<svg version="1.1" id="vv" xmlns="http://www.w3.org/2000/svg" xmlns:xlink="http://www.w3.org/1999/xlink" x="0px" y="0px"
	 viewBox="0 0 2272 1872" style="enable-background:new 0 0 2272 1872;" xml:space="preserve">
<style type="text/css">
	.st0{fill:#DCFFE1;}
	.st1{fill:#88BA8E;}
	.st2{fill:#CDF9D2;}
	.st3{fill:#93BA95;}
	.st4{fill:#A5D3A9;}
	.st5{fill:#9FC1A3;}
	.st6{fill:#72A072;}
	.st7{fill:#8CBA8E;}
	.st8{fill:#B9DBBC;}
	.st9{fill:#C5EFC7;}
	.st10{fill:#488BA8;}
	.st11{fill:#DBDCDD;}
	.st12{fill:#B2B2B2;}
	.st13{fill:#3B717F;}
	.st14{fill:#545454;}
	.st15{fill:#33363D;}
	.st16{fill:#D1785D;}
	.st17{fill:#FFB53E;}
	.st18{fill:#FFD49C;}
	.st19{fill:#FFE7CA;}
	.st20{fill:#FFFFFF;}
	.st21{fill:#8897B5;}
	.st22{fill:#267AAA;}
	.st23{fill:#C64A4A;}
	.st24{fill:#A03A3A;}
	.st25{fill:#FF7373;}
	.st26{fill:#75593E;}
	.st27{fill:#604631;}
	.st28{fill:#5E667A;}
	.st29{fill:#4C5360;}
	.st30{fill:#333333;}
	.st31{fill:#212121;}
	.st32{fill:#363A42;}
	.st33{fill:#CECECE;}
</style>
<g id="Layer_1_1_">
</g>
<g id="Layer_2">
</g>
<rect class="st0" width="2272" height="1872"/>
<g>
	<rect x="-1.2" y="1438.5" class="st1" width="2273.2" height="433.5"/>
	<rect x="10.6" y="1018.1" class="st2" width="2261.4" height="216.8"/>
	<rect x="10.6" y="749.7" class="st2" width="2261.4" height="88.6"/>
	<rect x="10.6" y="445.4" class="st2" width="2261.4" height="88.6"/>
	<rect y="255.2" class="st2" width="2265.2" height="88.6"/>
	<g>
		<g>
			<path class="st3" d="M1361.8,1276.9c0,0-82.5,82.6-131.6,190.9c0,0,198.6-11.3,187.3,0c-11.3,11.3,67.8-98.3,67.8-98.3
				l110.1,99.1h177.9c0,0-66.6-184.3-142.7-240.7C1554.5,1171.4,1361.8,1276.9,1361.8,1276.9z"/>
			<g>
				<g>
					<path class="st4" d="M1107.8,895c-2.7,0.5-92.5,201.4-92.5,201.4s-44.7-4.8-91.7,10.6c-3,1-65.6,37.8-65.6,37.8l-95.1,29.4
						l13,52.7c0,0,221.6-25.7,288.5-67.9c0,0,81.9-121.8,108.2-178.2c4.3-9.1,5.7-19.3,4.1-29.2
						C1172.8,927.6,1158.9,885.9,1107.8,895z"/>
					<polygon class="st4" points="690.9,1168.5 618.8,1155.7 625.2,1179.7 677.8,1195.8 					"/>
					<path class="st5" d="M671.4,1179.8c0,0-1.9-59-25.5-79.5c-14-12.2-51.1-31.4-91.1-31.4c-41.7,0-78,28.5-88.5,68.9l0,0
						c-7.5,29-0.4,59.8,19,82.5c17.1,19.9,45.4,38.8,92.2,44.1C577.6,1264.3,648.5,1267.4,671.4,1179.8z"/>
					<path class="st4" d="M466.5,1137.8L466.5,1137.8c2-7.7,4.9-15,8.7-21.8c-2.5,5.3-4.6,10.9-6.1,16.8v0c-7.5,29-0.4,59.8,19,82.5
						c17.1,19.9,45.4,38.8,92.2,44.1c0,0,51.6,2.2,81-51.7c-28.8,59.1-83.6,56.7-83.6,56.7c-46.7-5.3-75-24.1-92.2-44.1
						C466,1197.6,459,1166.8,466.5,1137.8z"/>
					<path class="st6" d="M671.4,1179.8c-11,41.8-32.8,62.9-52.7,73.6c27.8-38.7,40.4-101.6,44.1-123.9
						C670.6,1153.2,671.4,1179.8,671.4,1179.8z"/>
					<path class="st4" d="M618.8,1253.4c27.8-38.7,40.4-101.6,44.1-123.9c0.8,2.5,1.5,4.9,2.2,7.4c-4.1,22.1-15.6,74.4-36.6,110.4
						C625.2,1249.7,622,1251.7,618.8,1253.4z"/>
					<path class="st4" d="M691.3,1191c1.3-0.9,64.3,28.6,85.8,38.7c5.8,2.7,8.4,9.7,5.7,15.5c-1.4,3-3.8,5.9-7.8,8.2
						c-3.4,1.9-7.5,1.9-10.9,0.2l-78-39.1C686.1,1214.5,678.3,1199.9,691.3,1191z"/>
					<path class="st6" d="M691.3,1191c1.3-0.9,64.3,28.6,85.8,38.7c0.8,0.4,1.6,0.9,2.3,1.4c-2.3,6.3-5.5,12.3-11,15.9
						c-2.9,1.9-6.3,3-9.7,3.9l-72.6-36.4C686.1,1214.5,678.3,1199.9,691.3,1191z"/>
					<path class="st4" d="M762.8,1174.2c0,0-61-7.9-71.9-5.7c-10.9,2.2-29.8,33-29.8,33s-16,14.9-17.4,22.1
						c-1.5,7.3-0.4,17.1,7.6,19.6c8,2.5,19.2-8.4,19.2-8.4s-2.5,17.1,14.2,13.8c0,0,2.2,12.3,18.5,13.8c16.3,1.5,20,5.1,39.2-5.4
						s33.3-30.2,33.3-30.2L762.8,1174.2z"/>
				</g>
				<g>
					<path class="st4" d="M1351.1,578.3c0,0,27.3-30.6,33.6,4.9c6.3,35.5,2.5,84.7-48.1,89.2L1351.1,578.3z"/>
					<path class="st7" d="M1348.2,602.7c0.9-1.9,17.9-26,24.3-15.3c6.3,10.7,3.6,60.3-24.3,66.3V602.7z"/>
					<path class="st4" d="M1090.5,578.3c0,0-27.3-30.6-33.6,4.9c-6.3,35.5-2.5,84.7,48.1,89.2L1090.5,578.3z"/>
					<path class="st7" d="M1100.6,602.7c-0.9-1.9-17.9-26-24.3-15.3c-6.3,10.7-3.5,60.3,24.3,66.3V602.7z"/>
					<path class="st3" d="M1117.8,822.3l-82,195.8c0,0,66.4,64,125.7,50.9l59.9-175.2L1117.8,822.3z"/>
					<path class="st8" d="M1295.7,731.5c-22.8,6.6-177.9,90.8-177.9,90.8l140.5,268l103.5,186.5c0,0,223.7,33.9,280.5-26.2
						c0,0-116.2-546.8-125.9-553.9C1506.7,689.7,1421,695.3,1295.7,731.5z"/>
					<path class="st9" d="M1583.2,977.5c-30.3-138-62-277.2-66.8-280.7c-4-2.9-21.1-3.7-48.7-1c-40.7,116.1-92,228.2-143.3,340.1
						c35-30,70-60,105-90c-44.2,69.1-90.8,136.6-138.4,203.4l43.6,78.6C1430.4,1158.8,1514.9,1073.9,1583.2,977.5z"/>
					<path class="st7" d="M1221.4,727.4l12.6,41.8c3.5,11.5,14.9,18.6,26.7,16.6c28.8-4.9,78.3-16.3,87.5-38.2
						c13-31.3-24.9-109.4-24.9-109.4L1221.4,727.4z"/>
					<path class="st4" d="M1223.1,747.5L1223.1,747.5c-75.1,0-136-60.9-136-136v-66.4c0-75.1,60.9-136,136-136h0
						c75.1,0,136,60.9,136,136v66.4C1359.1,686.6,1298.2,747.5,1223.1,747.5z"/>
					<path class="st7" d="M1197.2,573.9c-1.1,0-22.5,92.8-2.7,97.2c19.7,4.4,36.2,6.6,44.9-3.1c3.8-4.2-16.3-97.2-16.3-97.2
						L1197.2,573.9z"/>
					<path class="st8" d="M1351.1,504.7h-259.2c-10.1,0-18.2,8.1-18.2,18.2v37.2c0,10.1,8.1,18.2,18.2,18.2h259.2
						c10.1,0,18.2-8.1,18.2-18.2v-37.2C1369.3,512.9,1361.1,504.7,1351.1,504.7z"/>
					<path class="st5" d="M1083.2,495.6c-10.3-7.8-17.1-20.1-18.2-32.9c7.7,1.7,15.7,2.3,23.6,1.9c-7.4-9.5-18-16.6-29.6-19.7
						c11.7-4.2,23.5-8.3,35.2-12.5c-5.5-8.6-6.3-20-2.1-29.4c9.7,4.1,19.4,8.1,29.2,12.2c-2.3-11.7-6.5-23-12.4-33.3
						c17.5,0.7,34.9,3.2,51.9,7.4c0-8.7,2.3-17.4,6.4-25.1c10.6,11.9,23.8,21.3,38.5,27.4c1.3-9.1,2.5-18.2,3.8-27.3
						c0.2-1.1,0.4-2.3,1.2-3c1.3-1,3.2-0.2,4.6,0.6c18.3,10.4,35.3,22.9,50.7,37.3c7.7-10.7,15.4-21.4,23.1-32.1
						c-0.4,13.4,1,26.9,4.1,39.9c0.4,1.9,1.2,4,3,4.5c1.3,0.4,2.6-0.3,3.8-0.8c13.4-6.7,26.5-14.2,39.1-22.2
						c-3.5,13.3-6.6,26.6-9.2,40.1c12.4,0.3,24.9-1.4,36.7-5c-4.1,10.4-9.7,20.3-16.7,29.1c12.1,5,23.8,11.1,34.8,18.2
						c-4,3-12-0.8-13.6,4c-0.4,1.2-0.1,2.4,0.2,3.6c2,7.9,4,15.7,6,23.6c-8.1-2.1-16.5-3.5-24.9-4.1c0.6,4.3,2,8.5,4,12.3
						c-8.3-0.8-16.6-1.5-24.8-2.3c0.3,7.6,0,15.2-0.9,22.7c-8.8-6.2-17.5-12.8-25.8-19.7c-5.1,6.1-10.2,12.2-15.3,18.2
						c-1.8-8.5-3.5-16.9-5.3-25.4c-12.1,2.8-24.4,4.3-36.8,4.5c0.7-3.8,1.4-7.6,2-11.4c-51.1,7.8-103.7,11.2-155.2,7.3
						c-11.7-0.9-23.2-0.3-34.8,1.2C1062.1,504.1,1081.5,494.3,1083.2,495.6z"/>
				</g>
				<path class="st4" d="M1623.4,936l84.4,54.3l-16.5,69.4c0,0,27.4,190.1,10.6,226.7c0,0,38.8,19.8,62.1,0
					c0,0,34.3-250.4,16.5-325.4l-100.8-93.1C1679.7,867.8,1637.5,880.3,1623.4,936z"/>
				<path class="st4" d="M1701.9,1286.4l-29.3,19.8c0,0-15.6,39.4-30.3,46.1c-14.7,6.7,27.6,17.2,44.6-7l-2.6,33.6
					c0,0,88.5,16.4,96.2-9.4c0,0-3.9-48.9-16.5-83H1701.9z"/>
				<path class="st3" d="M1516.4,696.8l-9.9,137.4c-2.8,39.4,18.6,76.6,54.2,93.9l83.8,40.7c64.3-24,70.4-103.5,70.4-103.5
					L1516.4,696.8z"/>
				<path class="st8" d="M1054.5,1018.1"/>
				<path class="st7" d="M698.7,1168.1l-17.3,9.6l-24.8,30.9c0,0,13.9,17.8,34.4-6c0,0,41.9,17.2,61.6,2l23.2,22.4
					c0,0-59.9,1-81.6-10.7c0,0-32.6,13.7-46.4,0l11.2-26.8l11.1-25.7L698.7,1168.1z"/>
			</g>
		</g>
		<polygon class="st10" points="0,1341.4 0,1872 2272,1872 1846,1341.4 		"/>
		<g>
			<polygon class="st11" points="980,1523.3 980,1872 998.3,1872 998.3,1522.7 			"/>
			<polygon class="st12" points="980,1358.1 980,1516 998.3,1516 998.3,1357.4 			"/>
			<path class="st13" d="M0,1540.1v3h57.3v8.4H0v3h57.3v9.2H0v3h57.3v9.2H0v3h57.3v9.2H0v3h57.3v9.2H0v3h57.3v9.2H0v3h57.3v9.2H0v3
				h57.3v9.2H0v3h57.3v9.2H0v3h57.3v9.2H0v20.9h57.3h4.5h14.2h4.5h14.2h4.5h14.2h4.5h14.2h4.5H151h4.5h14.2h4.5h14.2h4.5h14.2h4.5
				h14.2h4.5h14.2h4.5h14.2h4.5h14.2h4.5h14.2h4.5h14.2h4.5h14.2h4.5H357h4.5h14.2h4.5h14.2h4.5h14.2h4.5h14.2h4.5h14.2h4.5h14.2
				h4.5h14.2h4.5h14.2h4.5h14.2h4.5h14.2h4.5H563h4.5h14.2h4.5h14.2h4.5h14.2h4.5H638h4.5h14.2h4.5h14.2h4.5h14.2h4.5h14.2h4.5h14.2
				h4.5h14.2h4.5h14.2h4.5h14.2h4.5h14.2h4.5h14.2h4.5H844h4.5h14.2h4.5h14.2h4.5h14.2h4.5h14.2h4.5h14.2h4.5h14.2h4.5h14.2h4.5
				h14.2h4.5h14.2h4.5h14.2h4.5h14.2h4.5h14.2h4.5h14.2h4.5h14.2h4.5h14.2h4.5h14.2h4.5h14.2h4.5h14.2h4.5h14.2h4.5h14.2h4.5h14.2
				h4.5h14.2h4.5h14.2h4.5h14.2h4.5h14.2h4.5h14.2h4.5h14.2h4.5h14.2h4.5h14.2h4.5h14.2h4.5h14.2h4.5h14.2h4.5h14.2h4.5h14.2h4.5
				h14.2h4.5h14.2h4.5h14.2h4.5h14.2h4.5h14.2h4.5h14.2h4.5h14.2h4.5h14.2h4.5h14.2h4.5h14.2h4.5h14.2h4.5h14.2h4.5h14.2h4.5h14.2
				h4.5h14.2h4.5h14.2h4.5h14.2h4.5h14.2h4.5h14.2h4.5h14.2h4.5h14.2h4.5h14.2h4.5h14.2h4.5h14.2h4.5h14.2h4.5h14.2h4.5h14.2h4.5
				h14.2h4.5h14.2h4.5v-20.9v-9.2v-3v-9.2v-3v-9.2v-3v-9.2v-3v-9.2v-3v-9.2v-3v-9.2v-3v-9.2v-3v-9.2v-3v-8.4v-1.5v-1.5H0z
				 M174.2,1591.2h14.2v9.2h-14.2V1591.2z M169.7,1600.4h-14.2v-9.2h14.2V1600.4z M193,1591.2h14.2v9.2H193V1591.2z M211.7,1591.2
				h14.2v9.2h-14.2V1591.2z M230.4,1591.2h14.2v9.2h-14.2V1591.2z M249.1,1591.2h14.2v9.2h-14.2V1591.2z M267.9,1591.2h14.2v9.2
				h-14.2V1591.2z M286.6,1591.2h14.2v9.2h-14.2V1591.2z M305.3,1591.2h14.2v9.2h-14.2V1591.2z M324.1,1591.2h14.2v9.2h-14.2V1591.2
				z M342.8,1591.2H357v9.2h-14.2V1591.2z M361.5,1591.2h14.2v9.2h-14.2V1591.2z M380.2,1591.2h14.2v9.2h-14.2V1591.2z M399,1591.2
				h14.2v9.2H399V1591.2z M417.7,1591.2h14.2v9.2h-14.2V1591.2z M436.4,1591.2h14.2v9.2h-14.2V1591.2z M455.2,1591.2h14.2v9.2h-14.2
				V1591.2z M473.9,1591.2h14.2v9.2h-14.2V1591.2z M492.6,1591.2h14.2v9.2h-14.2V1591.2z M511.4,1591.2h14.2v9.2h-14.2V1591.2z
				 M530.1,1591.2h14.2v9.2h-14.2V1591.2z M548.8,1591.2H563v9.2h-14.2V1591.2z M567.5,1591.2h14.2v9.2h-14.2V1591.2z M586.3,1591.2
				h14.2v9.2h-14.2V1591.2z M605,1591.2h14.2v9.2H605V1591.2z M623.7,1591.2H638v9.2h-14.2V1591.2z M642.5,1591.2h14.2v9.2h-14.2
				V1591.2z M661.2,1591.2h14.2v9.2h-14.2V1591.2z M679.9,1591.2h14.2v9.2h-14.2V1591.2z M698.7,1591.2h14.2v9.2h-14.2V1591.2z
				 M717.4,1591.2h14.2v9.2h-14.2V1591.2z M736.1,1591.2h14.2v9.2h-14.2V1591.2z M754.8,1591.2h14.2v9.2h-14.2V1591.2z
				 M773.6,1591.2h14.2v9.2h-14.2V1591.2z M792.3,1591.2h14.2v9.2h-14.2V1591.2z M811,1591.2h14.2v9.2H811V1591.2z M829.8,1591.2
				H844v9.2h-14.2V1591.2z M848.5,1591.2h14.2v9.2h-14.2V1591.2z M867.2,1591.2h14.2v9.2h-14.2V1591.2z M885.9,1591.2h14.2v9.2
				h-14.2V1591.2z M904.7,1591.2h14.2v9.2h-14.2V1591.2z M923.4,1591.2h14.2v9.2h-14.2V1591.2z M942.1,1591.2h14.2v9.2h-14.2V1591.2
				z M960.9,1591.2h14.2v9.2h-14.2V1591.2z M979.6,1591.2h14.2v9.2h-14.2V1591.2z M998.3,1591.2h14.2v9.2h-14.2V1591.2z
				 M1017.1,1591.2h14.2v9.2h-14.2V1591.2z M1035.8,1591.2h14.2v9.2h-14.2V1591.2z M1054.5,1591.2h14.2v9.2h-14.2V1591.2z
				 M1073.2,1591.2h14.2v9.2h-14.2V1591.2z M1092,1591.2h14.2v9.2H1092V1591.2z M1110.7,1591.2h14.2v9.2h-14.2V1591.2z
				 M1129.4,1591.2h14.2v9.2h-14.2V1591.2z M1148.2,1591.2h14.2v9.2h-14.2V1591.2z M1166.9,1591.2h14.2v9.2h-14.2V1591.2z
				 M1185.6,1591.2h14.2v9.2h-14.2V1591.2z M1204.4,1591.2h14.2v9.2h-14.2V1591.2z M1223.1,1591.2h14.2v9.2h-14.2V1591.2z
				 M1241.8,1591.2h14.2v9.2h-14.2V1591.2z M1260.5,1591.2h14.2v9.2h-14.2V1591.2z M1279.3,1591.2h14.2v9.2h-14.2V1591.2z
				 M1298,1591.2h14.2v9.2H1298V1591.2z M1316.7,1591.2h14.2v9.2h-14.2V1591.2z M1335.5,1591.2h14.2v9.2h-14.2V1591.2z
				 M1354.2,1591.2h14.2v9.2h-14.2V1591.2z M1372.9,1591.2h14.2v9.2h-14.2V1591.2z M1391.6,1591.2h14.2v9.2h-14.2V1591.2z
				 M1410.4,1591.2h14.2v9.2h-14.2V1591.2z M1429.1,1591.2h14.2v9.2h-14.2V1591.2z M1447.8,1591.2h14.2v9.2h-14.2V1591.2z
				 M1466.6,1591.2h14.2v9.2h-14.2V1591.2z M1485.3,1591.2h14.2v9.2h-14.2V1591.2z M1504,1591.2h14.2v9.2H1504V1591.2z
				 M1522.8,1591.2h14.2v9.2h-14.2V1591.2z M1541.5,1591.2h14.2v9.2h-14.2V1591.2z M1560.2,1591.2h14.2v9.2h-14.2V1591.2z
				 M1578.9,1591.2h14.2v9.2h-14.2V1591.2z M1597.7,1591.2h14.2v9.2h-14.2V1591.2z M1616.4,1591.2h14.2v9.2h-14.2V1591.2z
				 M1635.1,1591.2h14.2v9.2h-14.2V1591.2z M1653.9,1591.2h14.2v9.2h-14.2V1591.2z M1672.6,1591.2h14.2v9.2h-14.2V1591.2z
				 M1691.3,1591.2h14.2v9.2h-14.2V1591.2z M1710,1591.2h14.2v9.2H1710V1591.2z M1728.8,1591.2h14.2v9.2h-14.2V1591.2z
				 M1747.5,1591.2h14.2v9.2h-14.2V1591.2z M1766.2,1591.2h14.2v9.2h-14.2V1591.2z M1785,1591.2h14.2v9.2H1785V1591.2z
				 M1803.7,1591.2h14.2v9.2h-14.2V1591.2z M1822.4,1591.2h14.2v9.2h-14.2V1591.2z M1841.2,1591.2h14.2v9.2h-14.2V1591.2z
				 M1859.9,1591.2h14.2v9.2h-14.2V1591.2z M1878.6,1591.2h14.2v9.2h-14.2V1591.2z M1897.3,1591.2h14.2v9.2h-14.2V1591.2z
				 M1916.1,1591.2h14.2v9.2h-14.2V1591.2z M1916.1,1588.2v-9.2h14.2v9.2H1916.1z M1911.6,1588.2h-14.2v-9.2h14.2V1588.2z
				 M1892.8,1588.2h-14.2v-9.2h14.2V1588.2z M1874.1,1588.2h-14.2v-9.2h14.2V1588.2z M1855.4,1588.2h-14.2v-9.2h14.2V1588.2z
				 M1836.7,1588.2h-14.2v-9.2h14.2V1588.2z M1817.9,1588.2h-14.2v-9.2h14.2V1588.2z M1799.2,1588.2H1785v-9.2h14.2V1588.2z
				 M1780.5,1588.2h-14.2v-9.2h14.2V1588.2z M1761.7,1588.2h-14.2v-9.2h14.2V1588.2z M1743,1588.2h-14.2v-9.2h14.2V1588.2z
				 M1724.3,1588.2H1710v-9.2h14.2V1588.2z M1705.5,1588.2h-14.2v-9.2h14.2V1588.2z M1686.8,1588.2h-14.2v-9.2h14.2V1588.2z
				 M1668.1,1588.2h-14.2v-9.2h14.2V1588.2z M1649.4,1588.2h-14.2v-9.2h14.2V1588.2z M1630.6,1588.2h-14.2v-9.2h14.2V1588.2z
				 M1611.9,1588.2h-14.2v-9.2h14.2V1588.2z M1593.2,1588.2h-14.2v-9.2h14.2V1588.2z M1574.4,1588.2h-14.2v-9.2h14.2V1588.2z
				 M1555.7,1588.2h-14.2v-9.2h14.2V1588.2z M1537,1588.2h-14.2v-9.2h14.2V1588.2z M1518.2,1588.2H1504v-9.2h14.2V1588.2z
				 M1499.5,1588.2h-14.2v-9.2h14.2V1588.2z M1480.8,1588.2h-14.2v-9.2h14.2V1588.2z M1462.1,1588.2h-14.2v-9.2h14.2V1588.2z
				 M1443.3,1588.2h-14.2v-9.2h14.2V1588.2z M1424.6,1588.2h-14.2v-9.2h14.2V1588.2z M1405.9,1588.2h-14.2v-9.2h14.2V1588.2z
				 M1387.1,1588.2h-14.2v-9.2h14.2V1588.2z M1368.4,1588.2h-14.2v-9.2h14.2V1588.2z M1349.7,1588.2h-14.2v-9.2h14.2V1588.2z
				 M1331,1588.2h-14.2v-9.2h14.2V1588.2z M1312.2,1588.2H1298v-9.2h14.2V1588.2z M1293.5,1588.2h-14.2v-9.2h14.2V1588.2z
				 M1274.8,1588.2h-14.2v-9.2h14.2V1588.2z M1256,1588.2h-14.2v-9.2h14.2V1588.2z M1237.3,1588.2h-14.2v-9.2h14.2V1588.2z
				 M1218.6,1588.2h-14.2v-9.2h14.2V1588.2z M1199.8,1588.2h-14.2v-9.2h14.2V1588.2z M1181.1,1588.2h-14.2v-9.2h14.2V1588.2z
				 M1162.4,1588.2h-14.2v-9.2h14.2V1588.2z M1143.7,1588.2h-14.2v-9.2h14.2V1588.2z M1124.9,1588.2h-14.2v-9.2h14.2V1588.2z
				 M1106.2,1588.2H1092v-9.2h14.2V1588.2z M1087.5,1588.2h-14.2v-9.2h14.2V1588.2z M1068.7,1588.2h-14.2v-9.2h14.2V1588.2z
				 M1050,1588.2h-14.2v-9.2h14.2V1588.2z M1031.3,1588.2h-14.2v-9.2h14.2V1588.2z M1012.5,1588.2h-14.2v-9.2h14.2V1588.2z
				 M993.8,1588.2h-14.2v-9.2h14.2V1588.2z M975.1,1588.2h-14.2v-9.2h14.2V1588.2z M956.4,1588.2h-14.2v-9.2h14.2V1588.2z
				 M937.6,1588.2h-14.2v-9.2h14.2V1588.2z M918.9,1588.2h-14.2v-9.2h14.2V1588.2z M900.2,1588.2h-14.2v-9.2h14.2V1588.2z
				 M881.4,1588.2h-14.2v-9.2h14.2V1588.2z M862.7,1588.2h-14.2v-9.2h14.2V1588.2z M844,1588.2h-14.2v-9.2H844V1588.2z
				 M825.3,1588.2H811v-9.2h14.2V1588.2z M806.5,1588.2h-14.2v-9.2h14.2V1588.2z M787.8,1588.2h-14.2v-9.2h14.2V1588.2z
				 M769.1,1588.2h-14.2v-9.2h14.2V1588.2z M750.3,1588.2h-14.2v-9.2h14.2V1588.2z M731.6,1588.2h-14.2v-9.2h14.2V1588.2z
				 M712.9,1588.2h-14.2v-9.2h14.2V1588.2z M694.1,1588.2h-14.2v-9.2h14.2V1588.2z M675.4,1588.2h-14.2v-9.2h14.2V1588.2z
				 M656.7,1588.2h-14.2v-9.2h14.2V1588.2z M638,1588.2h-14.2v-9.2H638V1588.2z M619.2,1588.2H605v-9.2h14.2V1588.2z M600.5,1588.2
				h-14.2v-9.2h14.2V1588.2z M581.8,1588.2h-14.2v-9.2h14.2V1588.2z M563,1588.2h-14.2v-9.2H563V1588.2z M544.3,1588.2h-14.2v-9.2
				h14.2V1588.2z M525.6,1588.2h-14.2v-9.2h14.2V1588.2z M506.9,1588.2h-14.2v-9.2h14.2V1588.2z M488.1,1588.2h-14.2v-9.2h14.2
				V1588.2z M469.4,1588.2h-14.2v-9.2h14.2V1588.2z M450.7,1588.2h-14.2v-9.2h14.2V1588.2z M431.9,1588.2h-14.2v-9.2h14.2V1588.2z
				 M413.2,1588.2H399v-9.2h14.2V1588.2z M394.5,1588.2h-14.2v-9.2h14.2V1588.2z M375.7,1588.2h-14.2v-9.2h14.2V1588.2z M357,1588.2
				h-14.2v-9.2H357V1588.2z M338.3,1588.2h-14.2v-9.2h14.2V1588.2z M319.6,1588.2h-14.2v-9.2h14.2V1588.2z M300.8,1588.2h-14.2v-9.2
				h14.2V1588.2z M282.1,1588.2h-14.2v-9.2h14.2V1588.2z M263.4,1588.2h-14.2v-9.2h14.2V1588.2z M244.6,1588.2h-14.2v-9.2h14.2
				V1588.2z M225.9,1588.2h-14.2v-9.2h14.2V1588.2z M207.2,1588.2H193v-9.2h14.2V1588.2z M188.4,1588.2h-14.2v-9.2h14.2V1588.2z
				 M169.7,1588.2h-14.2v-9.2h14.2V1588.2z M151,1588.2h-14.2v-9.2H151V1588.2z M151,1591.2v9.2h-14.2v-9.2H151z M151,1603.4v9.2
				h-14.2v-9.2H151z M155.5,1603.4h14.2v9.2h-14.2V1603.4z M174.2,1603.4h14.2v9.2h-14.2V1603.4z M193,1603.4h14.2v9.2H193V1603.4z
				 M211.7,1603.4h14.2v9.2h-14.2V1603.4z M230.4,1603.4h14.2v9.2h-14.2V1603.4z M249.1,1603.4h14.2v9.2h-14.2V1603.4z
				 M267.9,1603.4h14.2v9.2h-14.2V1603.4z M286.6,1603.4h14.2v9.2h-14.2V1603.4z M305.3,1603.4h14.2v9.2h-14.2V1603.4z
				 M324.1,1603.4h14.2v9.2h-14.2V1603.4z M342.8,1603.4H357v9.2h-14.2V1603.4z M361.5,1603.4h14.2v9.2h-14.2V1603.4z M380.2,1603.4
				h14.2v9.2h-14.2V1603.4z M399,1603.4h14.2v9.2H399V1603.4z M417.7,1603.4h14.2v9.2h-14.2V1603.4z M436.4,1603.4h14.2v9.2h-14.2
				V1603.4z M455.2,1603.4h14.2v9.2h-14.2V1603.4z M473.9,1603.4h14.2v9.2h-14.2V1603.4z M492.6,1603.4h14.2v9.2h-14.2V1603.4z
				 M511.4,1603.4h14.2v9.2h-14.2V1603.4z M530.1,1603.4h14.2v9.2h-14.2V1603.4z M548.8,1603.4H563v9.2h-14.2V1603.4z M567.5,1603.4
				h14.2v9.2h-14.2V1603.4z M586.3,1603.4h14.2v9.2h-14.2V1603.4z M605,1603.4h14.2v9.2H605V1603.4z M623.7,1603.4H638v9.2h-14.2
				V1603.4z M642.5,1603.4h14.2v9.2h-14.2V1603.4z M661.2,1603.4h14.2v9.2h-14.2V1603.4z M679.9,1603.4h14.2v9.2h-14.2V1603.4z
				 M698.7,1603.4h14.2v9.2h-14.2V1603.4z M717.4,1603.4h14.2v9.2h-14.2V1603.4z M736.1,1603.4h14.2v9.2h-14.2V1603.4z
				 M754.8,1603.4h14.2v9.2h-14.2V1603.4z M773.6,1603.4h14.2v9.2h-14.2V1603.4z M792.3,1603.4h14.2v9.2h-14.2V1603.4z M811,1603.4
				h14.2v9.2H811V1603.4z M829.8,1603.4H844v9.2h-14.2V1603.4z M848.5,1603.4h14.2v9.2h-14.2V1603.4z M867.2,1603.4h14.2v9.2h-14.2
				V1603.4z M885.9,1603.4h14.2v9.2h-14.2V1603.4z M904.7,1603.4h14.2v9.2h-14.2V1603.4z M923.4,1603.4h14.2v9.2h-14.2V1603.4z
				 M942.1,1603.4h14.2v9.2h-14.2V1603.4z M960.9,1603.4h14.2v9.2h-14.2V1603.4z M979.6,1603.4h14.2v9.2h-14.2V1603.4z
				 M998.3,1603.4h14.2v9.2h-14.2V1603.4z M1017.1,1603.4h14.2v9.2h-14.2V1603.4z M1035.8,1603.4h14.2v9.2h-14.2V1603.4z
				 M1054.5,1603.4h14.2v9.2h-14.2V1603.4z M1073.2,1603.4h14.2v9.2h-14.2V1603.4z M1092,1603.4h14.2v9.2H1092V1603.4z
				 M1110.7,1603.4h14.2v9.2h-14.2V1603.4z M1129.4,1603.4h14.2v9.2h-14.2V1603.4z M1148.2,1603.4h14.2v9.2h-14.2V1603.4z
				 M1166.9,1603.4h14.2v9.2h-14.2V1603.4z M1185.6,1603.4h14.2v9.2h-14.2V1603.4z M1204.4,1603.4h14.2v9.2h-14.2V1603.4z
				 M1223.1,1603.4h14.2v9.2h-14.2V1603.4z M1241.8,1603.4h14.2v9.2h-14.2V1603.4z M1260.5,1603.4h14.2v9.2h-14.2V1603.4z
				 M1279.3,1603.4h14.2v9.2h-14.2V1603.4z M1298,1603.4h14.2v9.2H1298V1603.4z M1316.7,1603.4h14.2v9.2h-14.2V1603.4z
				 M1335.5,1603.4h14.2v9.2h-14.2V1603.4z M1354.2,1603.4h14.2v9.2h-14.2V1603.4z M1372.9,1603.4h14.2v9.2h-14.2V1603.4z
				 M1391.6,1603.4h14.2v9.2h-14.2V1603.4z M1410.4,1603.4h14.2v9.2h-14.2V1603.4z M1429.1,1603.4h14.2v9.2h-14.2V1603.4z
				 M1447.8,1603.4h14.2v9.2h-14.2V1603.4z M1466.6,1603.4h14.2v9.2h-14.2V1603.4z M1485.3,1603.4h14.2v9.2h-14.2V1603.4z
				 M1504,1603.4h14.2v9.2H1504V1603.4z M1522.8,1603.4h14.2v9.2h-14.2V1603.4z M1541.5,1603.4h14.2v9.2h-14.2V1603.4z
				 M1560.2,1603.4h14.2v9.2h-14.2V1603.4z M1578.9,1603.4h14.2v9.2h-14.2V1603.4z M1597.7,1603.4h14.2v9.2h-14.2V1603.4z
				 M1616.4,1603.4h14.2v9.2h-14.2V1603.4z M1635.1,1603.4h14.2v9.2h-14.2V1603.4z M1653.9,1603.4h14.2v9.2h-14.2V1603.4z
				 M1672.6,1603.4h14.2v9.2h-14.2V1603.4z M1691.3,1603.4h14.2v9.2h-14.2V1603.4z M1710,1603.4h14.2v9.2H1710V1603.4z
				 M1728.8,1603.4h14.2v9.2h-14.2V1603.4z M1747.5,1603.4h14.2v9.2h-14.2V1603.4z M1766.2,1603.4h14.2v9.2h-14.2V1603.4z
				 M1785,1603.4h14.2v9.2H1785V1603.4z M1803.7,1603.4h14.2v9.2h-14.2V1603.4z M1822.4,1603.4h14.2v9.2h-14.2V1603.4z
				 M1841.2,1603.4h14.2v9.2h-14.2V1603.4z M1859.9,1603.4h14.2v9.2h-14.2V1603.4z M1878.6,1603.4h14.2v9.2h-14.2V1603.4z
				 M1897.3,1603.4h14.2v9.2h-14.2V1603.4z M1916.1,1603.4h14.2v9.2h-14.2V1603.4z M1934.8,1603.4h14.2v9.2h-14.2V1603.4z
				 M1934.8,1600.4v-9.2h14.2v9.2H1934.8z M1934.8,1588.2v-9.2h14.2v9.2H1934.8z M1934.8,1576v-9.2h14.2v9.2H1934.8z M1930.3,1576
				h-14.2v-9.2h14.2V1576z M1911.6,1576h-14.2v-9.2h14.2V1576z M1892.8,1576h-14.2v-9.2h14.2V1576z M1874.1,1576h-14.2v-9.2h14.2
				V1576z M1855.4,1576h-14.2v-9.2h14.2V1576z M1836.7,1576h-14.2v-9.2h14.2V1576z M1817.9,1576h-14.2v-9.2h14.2V1576z M1799.2,1576
				H1785v-9.2h14.2V1576z M1780.5,1576h-14.2v-9.2h14.2V1576z M1761.7,1576h-14.2v-9.2h14.2V1576z M1743,1576h-14.2v-9.2h14.2V1576z
				 M1724.3,1576H1710v-9.2h14.2V1576z M1705.5,1576h-14.2v-9.2h14.2V1576z M1686.8,1576h-14.2v-9.2h14.2V1576z M1668.1,1576h-14.2
				v-9.2h14.2V1576z M1649.4,1576h-14.2v-9.2h14.2V1576z M1630.6,1576h-14.2v-9.2h14.2V1576z M1611.9,1576h-14.2v-9.2h14.2V1576z
				 M1593.2,1576h-14.2v-9.2h14.2V1576z M1574.4,1576h-14.2v-9.2h14.2V1576z M1555.7,1576h-14.2v-9.2h14.2V1576z M1537,1576h-14.2
				v-9.2h14.2V1576z M1518.2,1576H1504v-9.2h14.2V1576z M1499.5,1576h-14.2v-9.2h14.2V1576z M1480.8,1576h-14.2v-9.2h14.2V1576z
				 M1462.1,1576h-14.2v-9.2h14.2V1576z M1443.3,1576h-14.2v-9.2h14.2V1576z M1424.6,1576h-14.2v-9.2h14.2V1576z M1405.9,1576h-14.2
				v-9.2h14.2V1576z M1387.1,1576h-14.2v-9.2h14.2V1576z M1368.4,1576h-14.2v-9.2h14.2V1576z M1349.7,1576h-14.2v-9.2h14.2V1576z
				 M1331,1576h-14.2v-9.2h14.2V1576z M1312.2,1576H1298v-9.2h14.2V1576z M1293.5,1576h-14.2v-9.2h14.2V1576z M1274.8,1576h-14.2
				v-9.2h14.2V1576z M1256,1576h-14.2v-9.2h14.2V1576z M1237.3,1576h-14.2v-9.2h14.2V1576z M1218.6,1576h-14.2v-9.2h14.2V1576z
				 M1199.8,1576h-14.2v-9.2h14.2V1576z M1181.1,1576h-14.2v-9.2h14.2V1576z M1162.4,1576h-14.2v-9.2h14.2V1576z M1143.7,1576h-14.2
				v-9.2h14.2V1576z M1124.9,1576h-14.2v-9.2h14.2V1576z M1106.2,1576H1092v-9.2h14.2V1576z M1087.5,1576h-14.2v-9.2h14.2V1576z
				 M1068.7,1576h-14.2v-9.2h14.2V1576z M1050,1576h-14.2v-9.2h14.2V1576z M1031.3,1576h-14.2v-9.2h14.2V1576z M1012.5,1576h-14.2
				v-9.2h14.2V1576z M993.8,1576h-14.2v-9.2h14.2V1576z M975.1,1576h-14.2v-9.2h14.2V1576z M956.4,1576h-14.2v-9.2h14.2V1576z
				 M937.6,1576h-14.2v-9.2h14.2V1576z M918.9,1576h-14.2v-9.2h14.2V1576z M900.2,1576h-14.2v-9.2h14.2V1576z M881.4,1576h-14.2
				v-9.2h14.2V1576z M862.7,1576h-14.2v-9.2h14.2V1576z M844,1576h-14.2v-9.2H844V1576z M825.3,1576H811v-9.2h14.2V1576z
				 M806.5,1576h-14.2v-9.2h14.2V1576z M787.8,1576h-14.2v-9.2h14.2V1576z M769.1,1576h-14.2v-9.2h14.2V1576z M750.3,1576h-14.2
				v-9.2h14.2V1576z M731.6,1576h-14.2v-9.2h14.2V1576z M712.9,1576h-14.2v-9.2h14.2V1576z M694.1,1576h-14.2v-9.2h14.2V1576z
				 M675.4,1576h-14.2v-9.2h14.2V1576z M656.7,1576h-14.2v-9.2h14.2V1576z M638,1576h-14.2v-9.2H638V1576z M619.2,1576H605v-9.2
				h14.2V1576z M600.5,1576h-14.2v-9.2h14.2V1576z M581.8,1576h-14.2v-9.2h14.2V1576z M563,1576h-14.2v-9.2H563V1576z M544.3,1576
				h-14.2v-9.2h14.2V1576z M525.6,1576h-14.2v-9.2h14.2V1576z M506.9,1576h-14.2v-9.2h14.2V1576z M488.1,1576h-14.2v-9.2h14.2V1576z
				 M469.4,1576h-14.2v-9.2h14.2V1576z M450.7,1576h-14.2v-9.2h14.2V1576z M431.9,1576h-14.2v-9.2h14.2V1576z M413.2,1576H399v-9.2
				h14.2V1576z M394.5,1576h-14.2v-9.2h14.2V1576z M375.7,1576h-14.2v-9.2h14.2V1576z M357,1576h-14.2v-9.2H357V1576z M338.3,1576
				h-14.2v-9.2h14.2V1576z M319.6,1576h-14.2v-9.2h14.2V1576z M300.8,1576h-14.2v-9.2h14.2V1576z M282.1,1576h-14.2v-9.2h14.2V1576z
				 M263.4,1576h-14.2v-9.2h14.2V1576z M244.6,1576h-14.2v-9.2h14.2V1576z M225.9,1576h-14.2v-9.2h14.2V1576z M207.2,1576H193v-9.2
				h14.2V1576z M188.4,1576h-14.2v-9.2h14.2V1576z M169.7,1576h-14.2v-9.2h14.2V1576z M151,1576h-14.2v-9.2H151V1576z M132.3,1576
				H118v-9.2h14.2V1576z M132.3,1579v9.2H118v-9.2H132.3z M132.3,1591.2v9.2H118v-9.2H132.3z M132.3,1603.4v9.2H118v-9.2H132.3z
				 M132.3,1615.6v9.2H118v-9.2H132.3z M136.8,1615.6H151v9.2h-14.2V1615.6z M155.5,1615.6h14.2v9.2h-14.2V1615.6z M174.2,1615.6
				h14.2v9.2h-14.2V1615.6z M193,1615.6h14.2v9.2H193V1615.6z M211.7,1615.6h14.2v9.2h-14.2V1615.6z M230.4,1615.6h14.2v9.2h-14.2
				V1615.6z M249.1,1615.6h14.2v9.2h-14.2V1615.6z M267.9,1615.6h14.2v9.2h-14.2V1615.6z M286.6,1615.6h14.2v9.2h-14.2V1615.6z
				 M305.3,1615.6h14.2v9.2h-14.2V1615.6z M324.1,1615.6h14.2v9.2h-14.2V1615.6z M342.8,1615.6H357v9.2h-14.2V1615.6z M361.5,1615.6
				h14.2v9.2h-14.2V1615.6z M380.2,1615.6h14.2v9.2h-14.2V1615.6z M399,1615.6h14.2v9.2H399V1615.6z M417.7,1615.6h14.2v9.2h-14.2
				V1615.6z M436.4,1615.6h14.2v9.2h-14.2V1615.6z M455.2,1615.6h14.2v9.2h-14.2V1615.6z M473.9,1615.6h14.2v9.2h-14.2V1615.6z
				 M492.6,1615.6h14.2v9.2h-14.2V1615.6z M511.4,1615.6h14.2v9.2h-14.2V1615.6z M530.1,1615.6h14.2v9.2h-14.2V1615.6z
				 M548.8,1615.6H563v9.2h-14.2V1615.6z M567.5,1615.6h14.2v9.2h-14.2V1615.6z M586.3,1615.6h14.2v9.2h-14.2V1615.6z M605,1615.6
				h14.2v9.2H605V1615.6z M623.7,1615.6H638v9.2h-14.2V1615.6z M642.5,1615.6h14.2v9.2h-14.2V1615.6z M661.2,1615.6h14.2v9.2h-14.2
				V1615.6z M679.9,1615.6h14.2v9.2h-14.2V1615.6z M698.7,1615.6h14.2v9.2h-14.2V1615.6z M717.4,1615.6h14.2v9.2h-14.2V1615.6z
				 M736.1,1615.6h14.2v9.2h-14.2V1615.6z M754.8,1615.6h14.2v9.2h-14.2V1615.6z M773.6,1615.6h14.2v9.2h-14.2V1615.6z
				 M792.3,1615.6h14.2v9.2h-14.2V1615.6z M811,1615.6h14.2v9.2H811V1615.6z M829.8,1615.6H844v9.2h-14.2V1615.6z M848.5,1615.6
				h14.2v9.2h-14.2V1615.6z M867.2,1615.6h14.2v9.2h-14.2V1615.6z M885.9,1615.6h14.2v9.2h-14.2V1615.6z M904.7,1615.6h14.2v9.2
				h-14.2V1615.6z M923.4,1615.6h14.2v9.2h-14.2V1615.6z M942.1,1615.6h14.2v9.2h-14.2V1615.6z M960.9,1615.6h14.2v9.2h-14.2V1615.6
				z M979.6,1615.6h14.2v9.2h-14.2V1615.6z M998.3,1615.6h14.2v9.2h-14.2V1615.6z M1017.1,1615.6h14.2v9.2h-14.2V1615.6z
				 M1035.8,1615.6h14.2v9.2h-14.2V1615.6z M1054.5,1615.6h14.2v9.2h-14.2V1615.6z M1073.2,1615.6h14.2v9.2h-14.2V1615.6z
				 M1092,1615.6h14.2v9.2H1092V1615.6z M1110.7,1615.6h14.2v9.2h-14.2V1615.6z M1129.4,1615.6h14.2v9.2h-14.2V1615.6z
				 M1148.2,1615.6h14.2v9.2h-14.2V1615.6z M1166.9,1615.6h14.2v9.2h-14.2V1615.6z M1185.6,1615.6h14.2v9.2h-14.2V1615.6z
				 M1204.4,1615.6h14.2v9.2h-14.2V1615.6z M1223.1,1615.6h14.2v9.2h-14.2V1615.6z M1241.8,1615.6h14.2v9.2h-14.2V1615.6z
				 M1260.5,1615.6h14.2v9.2h-14.2V1615.6z M1279.3,1615.6h14.2v9.2h-14.2V1615.6z M1298,1615.6h14.2v9.2H1298V1615.6z
				 M1316.7,1615.6h14.2v9.2h-14.2V1615.6z M1335.5,1615.6h14.2v9.2h-14.2V1615.6z M1354.2,1615.6h14.2v9.2h-14.2V1615.6z
				 M1372.9,1615.6h14.2v9.2h-14.2V1615.6z M1391.6,1615.6h14.2v9.2h-14.2V1615.6z M1410.4,1615.6h14.2v9.2h-14.2V1615.6z
				 M1429.1,1615.6h14.2v9.2h-14.2V1615.6z M1447.8,1615.6h14.2v9.2h-14.2V1615.6z M1466.6,1615.6h14.2v9.2h-14.2V1615.6z
				 M1485.3,1615.6h14.2v9.2h-14.2V1615.6z M1504,1615.6h14.2v9.2H1504V1615.6z M1522.8,1615.6h14.2v9.2h-14.2V1615.6z
				 M1541.5,1615.6h14.2v9.2h-14.2V1615.6z M1560.2,1615.6h14.2v9.2h-14.2V1615.6z M1578.9,1615.6h14.2v9.2h-14.2V1615.6z
				 M1597.7,1615.6h14.2v9.2h-14.2V1615.6z M1616.4,1615.6h14.2v9.2h-14.2V1615.6z M1635.1,1615.6h14.2v9.2h-14.2V1615.6z
				 M1653.9,1615.6h14.2v9.2h-14.2V1615.6z M1672.6,1615.6h14.2v9.2h-14.2V1615.6z M1691.3,1615.6h14.2v9.2h-14.2V1615.6z
				 M1710,1615.6h14.2v9.2H1710V1615.6z M1728.8,1615.6h14.2v9.2h-14.2V1615.6z M1747.5,1615.6h14.2v9.2h-14.2V1615.6z
				 M1766.2,1615.6h14.2v9.2h-14.2V1615.6z M1785,1615.6h14.2v9.2H1785V1615.6z M1803.7,1615.6h14.2v9.2h-14.2V1615.6z
				 M1822.4,1615.6h14.2v9.2h-14.2V1615.6z M1841.2,1615.6h14.2v9.2h-14.2V1615.6z M1859.9,1615.6h14.2v9.2h-14.2V1615.6z
				 M1878.6,1615.6h14.2v9.2h-14.2V1615.6z M1897.3,1615.6h14.2v9.2h-14.2V1615.6z M1916.1,1615.6h14.2v9.2h-14.2V1615.6z
				 M1934.8,1615.6h14.2v9.2h-14.2V1615.6z M1953.5,1615.6h14.2v9.2h-14.2V1615.6z M1953.5,1612.6v-9.2h14.2v9.2H1953.5z
				 M1953.5,1600.4v-9.2h14.2v9.2H1953.5z M1953.5,1588.2v-9.2h14.2v9.2H1953.5z M1953.5,1576v-9.2h14.2v9.2H1953.5z M1953.5,1563.8
				v-9.2h14.2v9.2H1953.5z M1949,1563.8h-14.2v-9.2h14.2V1563.8z M1930.3,1563.8h-14.2v-9.2h14.2V1563.8z M1911.6,1563.8h-14.2v-9.2
				h14.2V1563.8z M1892.8,1563.8h-14.2v-9.2h14.2V1563.8z M1874.1,1563.8h-14.2v-9.2h14.2V1563.8z M1855.4,1563.8h-14.2v-9.2h14.2
				V1563.8z M1836.7,1563.8h-14.2v-9.2h14.2V1563.8z M1817.9,1563.8h-14.2v-9.2h14.2V1563.8z M1799.2,1563.8H1785v-9.2h14.2V1563.8z
				 M1780.5,1563.8h-14.2v-9.2h14.2V1563.8z M1761.7,1563.8h-14.2v-9.2h14.2V1563.8z M1743,1563.8h-14.2v-9.2h14.2V1563.8z
				 M1724.3,1563.8H1710v-9.2h14.2V1563.8z M1705.5,1563.8h-14.2v-9.2h14.2V1563.8z M1686.8,1563.8h-14.2v-9.2h14.2V1563.8z
				 M1668.1,1563.8h-14.2v-9.2h14.2V1563.8z M1649.4,1563.8h-14.2v-9.2h14.2V1563.8z M1630.6,1563.8h-14.2v-9.2h14.2V1563.8z
				 M1611.9,1563.8h-14.2v-9.2h14.2V1563.8z M1593.2,1563.8h-14.2v-9.2h14.2V1563.8z M1574.4,1563.8h-14.2v-9.2h14.2V1563.8z
				 M1555.7,1563.8h-14.2v-9.2h14.2V1563.8z M1537,1563.8h-14.2v-9.2h14.2V1563.8z M1518.2,1563.8H1504v-9.2h14.2V1563.8z
				 M1499.5,1563.8h-14.2v-9.2h14.2V1563.8z M1480.8,1563.8h-14.2v-9.2h14.2V1563.8z M1462.1,1563.8h-14.2v-9.2h14.2V1563.8z
				 M1443.3,1563.8h-14.2v-9.2h14.2V1563.8z M1424.6,1563.8h-14.2v-9.2h14.2V1563.8z M1405.9,1563.8h-14.2v-9.2h14.2V1563.8z
				 M1387.1,1563.8h-14.2v-9.2h14.2V1563.8z M1368.4,1563.8h-14.2v-9.2h14.2V1563.8z M1349.7,1563.8h-14.2v-9.2h14.2V1563.8z
				 M1331,1563.8h-14.2v-9.2h14.2V1563.8z M1312.2,1563.8H1298v-9.2h14.2V1563.8z M1293.5,1563.8h-14.2v-9.2h14.2V1563.8z
				 M1274.8,1563.8h-14.2v-9.2h14.2V1563.8z M1256,1563.8h-14.2v-9.2h14.2V1563.8z M1237.3,1563.8h-14.2v-9.2h14.2V1563.8z
				 M1218.6,1563.8h-14.2v-9.2h14.2V1563.8z M1199.8,1563.8h-14.2v-9.2h14.2V1563.8z M1181.1,1563.8h-14.2v-9.2h14.2V1563.8z
				 M1162.4,1563.8h-14.2v-9.2h14.2V1563.8z M1143.7,1563.8h-14.2v-9.2h14.2V1563.8z M1124.9,1563.8h-14.2v-9.2h14.2V1563.8z
				 M1106.2,1563.8H1092v-9.2h14.2V1563.8z M1087.5,1563.8h-14.2v-9.2h14.2V1563.8z M1068.7,1563.8h-14.2v-9.2h14.2V1563.8z
				 M1050,1563.8h-14.2v-9.2h14.2V1563.8z M1031.3,1563.8h-14.2v-9.2h14.2V1563.8z M1012.5,1563.8h-14.2v-9.2h14.2V1563.8z
				 M993.8,1563.8h-14.2v-9.2h14.2V1563.8z M975.1,1563.8h-14.2v-9.2h14.2V1563.8z M956.4,1563.8h-14.2v-9.2h14.2V1563.8z
				 M937.6,1563.8h-14.2v-9.2h14.2V1563.8z M918.9,1563.8h-14.2v-9.2h14.2V1563.8z M900.2,1563.8h-14.2v-9.2h14.2V1563.8z
				 M881.4,1563.8h-14.2v-9.2h14.2V1563.8z M862.7,1563.8h-14.2v-9.2h14.2V1563.8z M844,1563.8h-14.2v-9.2H844V1563.8z
				 M825.3,1563.8H811v-9.2h14.2V1563.8z M806.5,1563.8h-14.2v-9.2h14.2V1563.8z M787.8,1563.8h-14.2v-9.2h14.2V1563.8z
				 M769.1,1563.8h-14.2v-9.2h14.2V1563.8z M750.3,1563.8h-14.2v-9.2h14.2V1563.8z M731.6,1563.8h-14.2v-9.2h14.2V1563.8z
				 M712.9,1563.8h-14.2v-9.2h14.2V1563.8z M694.1,1563.8h-14.2v-9.2h14.2V1563.8z M675.4,1563.8h-14.2v-9.2h14.2V1563.8z
				 M656.7,1563.8h-14.2v-9.2h14.2V1563.8z M638,1563.8h-14.2v-9.2H638V1563.8z M619.2,1563.8H605v-9.2h14.2V1563.8z M600.5,1563.8
				h-14.2v-9.2h14.2V1563.8z M581.8,1563.8h-14.2v-9.2h14.2V1563.8z M563,1563.8h-14.2v-9.2H563V1563.8z M544.3,1563.8h-14.2v-9.2
				h14.2V1563.8z M525.6,1563.8h-14.2v-9.2h14.2V1563.8z M506.9,1563.8h-14.2v-9.2h14.2V1563.8z M488.1,1563.8h-14.2v-9.2h14.2
				V1563.8z M469.4,1563.8h-14.2v-9.2h14.2V1563.8z M450.7,1563.8h-14.2v-9.2h14.2V1563.8z M431.9,1563.8h-14.2v-9.2h14.2V1563.8z
				 M413.2,1563.8H399v-9.2h14.2V1563.8z M394.5,1563.8h-14.2v-9.2h14.2V1563.8z M375.7,1563.8h-14.2v-9.2h14.2V1563.8z M357,1563.8
				h-14.2v-9.2H357V1563.8z M338.3,1563.8h-14.2v-9.2h14.2V1563.8z M319.6,1563.8h-14.2v-9.2h14.2V1563.8z M300.8,1563.8h-14.2v-9.2
				h14.2V1563.8z M282.1,1563.8h-14.2v-9.2h14.2V1563.8z M263.4,1563.8h-14.2v-9.2h14.2V1563.8z M244.6,1563.8h-14.2v-9.2h14.2
				V1563.8z M225.9,1563.8h-14.2v-9.2h14.2V1563.8z M207.2,1563.8H193v-9.2h14.2V1563.8z M188.4,1563.8h-14.2v-9.2h14.2V1563.8z
				 M169.7,1563.8h-14.2v-9.2h14.2V1563.8z M151,1563.8h-14.2v-9.2H151V1563.8z M132.3,1563.8H118v-9.2h14.2V1563.8z M113.5,1563.8
				H99.3v-9.2h14.2V1563.8z M113.5,1566.8v9.2H99.3v-9.2H113.5z M113.5,1579v9.2H99.3v-9.2H113.5z M113.5,1591.2v9.2H99.3v-9.2
				H113.5z M113.5,1603.4v9.2H99.3v-9.2H113.5z M113.5,1615.6v9.2H99.3v-9.2H113.5z M113.5,1627.8v9.2H99.3v-9.2H113.5z M118,1627.8
				h14.2v9.2H118V1627.8z M136.8,1627.8H151v9.2h-14.2V1627.8z M155.5,1627.8h14.2v9.2h-14.2V1627.8z M174.2,1627.8h14.2v9.2h-14.2
				V1627.8z M193,1627.8h14.2v9.2H193V1627.8z M211.7,1627.8h14.2v9.2h-14.2V1627.8z M230.4,1627.8h14.2v9.2h-14.2V1627.8z
				 M249.1,1627.8h14.2v9.2h-14.2V1627.8z M267.9,1627.8h14.2v9.2h-14.2V1627.8z M286.6,1627.8h14.2v9.2h-14.2V1627.8z
				 M305.3,1627.8h14.2v9.2h-14.2V1627.8z M324.1,1627.8h14.2v9.2h-14.2V1627.8z M342.8,1627.8H357v9.2h-14.2V1627.8z M361.5,1627.8
				h14.2v9.2h-14.2V1627.8z M380.2,1627.8h14.2v9.2h-14.2V1627.8z M399,1627.8h14.2v9.2H399V1627.8z M417.7,1627.8h14.2v9.2h-14.2
				V1627.8z M436.4,1627.8h14.2v9.2h-14.2V1627.8z M455.2,1627.8h14.2v9.2h-14.2V1627.8z M473.9,1627.8h14.2v9.2h-14.2V1627.8z
				 M492.6,1627.8h14.2v9.2h-14.2V1627.8z M511.4,1627.8h14.2v9.2h-14.2V1627.8z M530.1,1627.8h14.2v9.2h-14.2V1627.8z
				 M548.8,1627.8H563v9.2h-14.2V1627.8z M567.5,1627.8h14.2v9.2h-14.2V1627.8z M586.3,1627.8h14.2v9.2h-14.2V1627.8z M605,1627.8
				h14.2v9.2H605V1627.8z M623.7,1627.8H638v9.2h-14.2V1627.8z M642.5,1627.8h14.2v9.2h-14.2V1627.8z M661.2,1627.8h14.2v9.2h-14.2
				V1627.8z M679.9,1627.8h14.2v9.2h-14.2V1627.8z M698.7,1627.8h14.2v9.2h-14.2V1627.8z M717.4,1627.8h14.2v9.2h-14.2V1627.8z
				 M736.1,1627.8h14.2v9.2h-14.2V1627.8z M754.8,1627.8h14.2v9.2h-14.2V1627.8z M773.6,1627.8h14.2v9.2h-14.2V1627.8z
				 M792.3,1627.8h14.2v9.2h-14.2V1627.8z M811,1627.8h14.2v9.2H811V1627.8z M829.8,1627.8H844v9.2h-14.2V1627.8z M848.5,1627.8
				h14.2v9.2h-14.2V1627.8z M867.2,1627.8h14.2v9.2h-14.2V1627.8z M885.9,1627.8h14.2v9.2h-14.2V1627.8z M904.7,1627.8h14.2v9.2
				h-14.2V1627.8z M923.4,1627.8h14.2v9.2h-14.2V1627.8z M942.1,1627.8h14.2v9.2h-14.2V1627.8z M960.9,1627.8h14.2v9.2h-14.2V1627.8
				z M979.6,1627.8h14.2v9.2h-14.2V1627.8z M998.3,1627.8h14.2v9.2h-14.2V1627.8z M1017.1,1627.8h14.2v9.2h-14.2V1627.8z
				 M1035.8,1627.8h14.2v9.2h-14.2V1627.8z M1054.5,1627.8h14.2v9.2h-14.2V1627.8z M1073.2,1627.8h14.2v9.2h-14.2V1627.8z
				 M1092,1627.8h14.2v9.2H1092V1627.8z M1110.7,1627.8h14.2v9.2h-14.2V1627.8z M1129.4,1627.8h14.2v9.2h-14.2V1627.8z
				 M1148.2,1627.8h14.2v9.2h-14.2V1627.8z M1166.9,1627.8h14.2v9.2h-14.2V1627.8z M1185.6,1627.8h14.2v9.2h-14.2V1627.8z
				 M1204.4,1627.8h14.2v9.2h-14.2V1627.8z M1223.1,1627.8h14.2v9.2h-14.2V1627.8z M1241.8,1627.8h14.2v9.2h-14.2V1627.8z
				 M1260.5,1627.8h14.2v9.2h-14.2V1627.8z M1279.3,1627.8h14.2v9.2h-14.2V1627.8z M1298,1627.8h14.2v9.2H1298V1627.8z
				 M1316.7,1627.8h14.2v9.2h-14.2V1627.8z M1335.5,1627.8h14.2v9.2h-14.2V1627.8z M1354.2,1627.8h14.2v9.2h-14.2V1627.8z
				 M1372.9,1627.8h14.2v9.2h-14.2V1627.8z M1391.6,1627.8h14.2v9.2h-14.2V1627.8z M1410.4,1627.8h14.2v9.2h-14.2V1627.8z
				 M1429.1,1627.8h14.2v9.2h-14.2V1627.8z M1447.8,1627.8h14.2v9.2h-14.2V1627.8z M1466.6,1627.8h14.2v9.2h-14.2V1627.8z
				 M1485.3,1627.8h14.2v9.2h-14.2V1627.8z M1504,1627.8h14.2v9.2H1504V1627.8z M1522.8,1627.8h14.2v9.2h-14.2V1627.8z
				 M1541.5,1627.8h14.2v9.2h-14.2V1627.8z M1560.2,1627.8h14.2v9.2h-14.2V1627.8z M1578.9,1627.8h14.2v9.2h-14.2V1627.8z
				 M1597.7,1627.8h14.2v9.2h-14.2V1627.8z M1616.4,1627.8h14.2v9.2h-14.2V1627.8z M1635.1,1627.8h14.2v9.2h-14.2V1627.8z
				 M1653.9,1627.8h14.2v9.2h-14.2V1627.8z M1672.6,1627.8h14.2v9.2h-14.2V1627.8z M1691.3,1627.8h14.2v9.2h-14.2V1627.8z
				 M1710,1627.8h14.2v9.2H1710V1627.8z M1728.8,1627.8h14.2v9.2h-14.2V1627.8z M1747.5,1627.8h14.2v9.2h-14.2V1627.8z
				 M1766.2,1627.8h14.2v9.2h-14.2V1627.8z M1785,1627.8h14.2v9.2H1785V1627.8z M1803.7,1627.8h14.2v9.2h-14.2V1627.8z
				 M1822.4,1627.8h14.2v9.2h-14.2V1627.8z M1841.2,1627.8h14.2v9.2h-14.2V1627.8z M1859.9,1627.8h14.2v9.2h-14.2V1627.8z
				 M1878.6,1627.8h14.2v9.2h-14.2V1627.8z M1897.3,1627.8h14.2v9.2h-14.2V1627.8z M1916.1,1627.8h14.2v9.2h-14.2V1627.8z
				 M1934.8,1627.8h14.2v9.2h-14.2V1627.8z M1953.5,1627.8h14.2v9.2h-14.2V1627.8z M1972.3,1627.8h14.2v9.2h-14.2V1627.8z
				 M1972.3,1624.8v-9.2h14.2v9.2H1972.3z M1972.3,1612.6v-9.2h14.2v9.2H1972.3z M1972.3,1600.4v-9.2h14.2v9.2H1972.3z
				 M1972.3,1588.2v-9.2h14.2v9.2H1972.3z M1972.3,1576v-9.2h14.2v9.2H1972.3z M1972.3,1563.8v-9.2h14.2v9.2H1972.3z M1972.3,1551.6
				v-8.4h14.2v8.4H1972.3z M1967.8,1551.6h-14.2v-8.4h14.2V1551.6z M1949,1551.6h-14.2v-8.4h14.2V1551.6z M1930.3,1551.6h-14.2v-8.4
				h14.2V1551.6z M1911.6,1551.6h-14.2v-8.4h14.2V1551.6z M1892.8,1551.6h-14.2v-8.4h14.2V1551.6z M1874.1,1551.6h-14.2v-8.4h14.2
				V1551.6z M1855.4,1551.6h-14.2v-8.4h14.2V1551.6z M1836.7,1551.6h-14.2v-8.4h14.2V1551.6z M1817.9,1551.6h-14.2v-8.4h14.2V1551.6
				z M1799.2,1551.6H1785v-8.4h14.2V1551.6z M1780.5,1551.6h-14.2v-8.4h14.2V1551.6z M1761.7,1551.6h-14.2v-8.4h14.2V1551.6z
				 M1743,1551.6h-14.2v-8.4h14.2V1551.6z M1724.3,1551.6H1710v-8.4h14.2V1551.6z M1705.5,1551.6h-14.2v-8.4h14.2V1551.6z
				 M1686.8,1551.6h-14.2v-8.4h14.2V1551.6z M1668.1,1551.6h-14.2v-8.4h14.2V1551.6z M1649.4,1551.6h-14.2v-8.4h14.2V1551.6z
				 M1630.6,1551.6h-14.2v-8.4h14.2V1551.6z M1611.9,1551.6h-14.2v-8.4h14.2V1551.6z M1593.2,1551.6h-14.2v-8.4h14.2V1551.6z
				 M1574.4,1551.6h-14.2v-8.4h14.2V1551.6z M1555.7,1551.6h-14.2v-8.4h14.2V1551.6z M1537,1551.6h-14.2v-8.4h14.2V1551.6z
				 M1518.2,1551.6H1504v-8.4h14.2V1551.6z M1499.5,1551.6h-14.2v-8.4h14.2V1551.6z M1480.8,1551.6h-14.2v-8.4h14.2V1551.6z
				 M1462.1,1551.6h-14.2v-8.4h14.2V1551.6z M1443.3,1551.6h-14.2v-8.4h14.2V1551.6z M1424.6,1551.6h-14.2v-8.4h14.2V1551.6z
				 M1405.9,1551.6h-14.2v-8.4h14.2V1551.6z M1387.1,1551.6h-14.2v-8.4h14.2V1551.6z M1368.4,1551.6h-14.2v-8.4h14.2V1551.6z
				 M1349.7,1551.6h-14.2v-8.4h14.2V1551.6z M1331,1551.6h-14.2v-8.4h14.2V1551.6z M1312.2,1551.6H1298v-8.4h14.2V1551.6z
				 M1293.5,1551.6h-14.2v-8.4h14.2V1551.6z M1274.8,1551.6h-14.2v-8.4h14.2V1551.6z M1256,1551.6h-14.2v-8.4h14.2V1551.6z
				 M1237.3,1551.6h-14.2v-8.4h14.2V1551.6z M1218.6,1551.6h-14.2v-8.4h14.2V1551.6z M1199.8,1551.6h-14.2v-8.4h14.2V1551.6z
				 M1181.1,1551.6h-14.2v-8.4h14.2V1551.6z M1162.4,1551.6h-14.2v-8.4h14.2V1551.6z M1143.7,1551.6h-14.2v-8.4h14.2V1551.6z
				 M1124.9,1551.6h-14.2v-8.4h14.2V1551.6z M1106.2,1551.6H1092v-8.4h14.2V1551.6z M1087.5,1551.6h-14.2v-8.4h14.2V1551.6z
				 M1068.7,1551.6h-14.2v-8.4h14.2V1551.6z M1050,1551.6h-14.2v-8.4h14.2V1551.6z M1031.3,1551.6h-14.2v-8.4h14.2V1551.6z
				 M1012.5,1551.6h-14.2v-8.4h14.2V1551.6z M993.8,1551.6h-14.2v-8.4h14.2V1551.6z M975.1,1551.6h-14.2v-8.4h14.2V1551.6z
				 M956.4,1551.6h-14.2v-8.4h14.2V1551.6z M937.6,1551.6h-14.2v-8.4h14.2V1551.6z M918.9,1551.6h-14.2v-8.4h14.2V1551.6z
				 M900.2,1551.6h-14.2v-8.4h14.2V1551.6z M881.4,1551.6h-14.2v-8.4h14.2V1551.6z M862.7,1551.6h-14.2v-8.4h14.2V1551.6z
				 M844,1551.6h-14.2v-8.4H844V1551.6z M825.3,1551.6H811v-8.4h14.2V1551.6z M806.5,1551.6h-14.2v-8.4h14.2V1551.6z M787.8,1551.6
				h-14.2v-8.4h14.2V1551.6z M769.1,1551.6h-14.2v-8.4h14.2V1551.6z M750.3,1551.6h-14.2v-8.4h14.2V1551.6z M731.6,1551.6h-14.2
				v-8.4h14.2V1551.6z M712.9,1551.6h-14.2v-8.4h14.2V1551.6z M694.1,1551.6h-14.2v-8.4h14.2V1551.6z M675.4,1551.6h-14.2v-8.4h14.2
				V1551.6z M656.7,1551.6h-14.2v-8.4h14.2V1551.6z M638,1551.6h-14.2v-8.4H638V1551.6z M619.2,1551.6H605v-8.4h14.2V1551.6z
				 M600.5,1551.6h-14.2v-8.4h14.2V1551.6z M581.8,1551.6h-14.2v-8.4h14.2V1551.6z M563,1551.6h-14.2v-8.4H563V1551.6z
				 M544.3,1551.6h-14.2v-8.4h14.2V1551.6z M525.6,1551.6h-14.2v-8.4h14.2V1551.6z M506.9,1551.6h-14.2v-8.4h14.2V1551.6z
				 M488.1,1551.6h-14.2v-8.4h14.2V1551.6z M469.4,1551.6h-14.2v-8.4h14.2V1551.6z M450.7,1551.6h-14.2v-8.4h14.2V1551.6z
				 M431.9,1551.6h-14.2v-8.4h14.2V1551.6z M413.2,1551.6H399v-8.4h14.2V1551.6z M394.5,1551.6h-14.2v-8.4h14.2V1551.6z
				 M375.7,1551.6h-14.2v-8.4h14.2V1551.6z M357,1551.6h-14.2v-8.4H357V1551.6z M338.3,1551.6h-14.2v-8.4h14.2V1551.6z
				 M319.6,1551.6h-14.2v-8.4h14.2V1551.6z M300.8,1551.6h-14.2v-8.4h14.2V1551.6z M282.1,1551.6h-14.2v-8.4h14.2V1551.6z
				 M263.4,1551.6h-14.2v-8.4h14.2V1551.6z M244.6,1551.6h-14.2v-8.4h14.2V1551.6z M225.9,1551.6h-14.2v-8.4h14.2V1551.6z
				 M207.2,1551.6H193v-8.4h14.2V1551.6z M188.4,1551.6h-14.2v-8.4h14.2V1551.6z M169.7,1551.6h-14.2v-8.4h14.2V1551.6z M151,1551.6
				h-14.2v-8.4H151V1551.6z M132.3,1551.6H118v-8.4h14.2V1551.6z M113.5,1551.6H99.3v-8.4h14.2V1551.6z M94.8,1551.6H80.6v-8.4h14.2
				V1551.6z M94.8,1554.6v9.2H80.6v-9.2H94.8z M94.8,1566.8v9.2H80.6v-9.2H94.8z M94.8,1579v9.2H80.6v-9.2H94.8z M94.8,1591.2v9.2
				H80.6v-9.2H94.8z M94.8,1603.4v9.2H80.6v-9.2H94.8z M94.8,1615.6v9.2H80.6v-9.2H94.8z M94.8,1627.8v9.2H80.6v-9.2H94.8z
				 M94.8,1640v9.2H80.6v-9.2H94.8z M99.3,1640h14.2v9.2H99.3V1640z M118,1640h14.2v9.2H118V1640z M136.8,1640H151v9.2h-14.2V1640z
				 M155.5,1640h14.2v9.2h-14.2V1640z M174.2,1640h14.2v9.2h-14.2V1640z M193,1640h14.2v9.2H193V1640z M211.7,1640h14.2v9.2h-14.2
				V1640z M230.4,1640h14.2v9.2h-14.2V1640z M249.1,1640h14.2v9.2h-14.2V1640z M267.9,1640h14.2v9.2h-14.2V1640z M286.6,1640h14.2
				v9.2h-14.2V1640z M305.3,1640h14.2v9.2h-14.2V1640z M324.1,1640h14.2v9.2h-14.2V1640z M342.8,1640H357v9.2h-14.2V1640z
				 M361.5,1640h14.2v9.2h-14.2V1640z M380.2,1640h14.2v9.2h-14.2V1640z M399,1640h14.2v9.2H399V1640z M417.7,1640h14.2v9.2h-14.2
				V1640z M436.4,1640h14.2v9.2h-14.2V1640z M455.2,1640h14.2v9.2h-14.2V1640z M473.9,1640h14.2v9.2h-14.2V1640z M492.6,1640h14.2
				v9.2h-14.2V1640z M511.4,1640h14.2v9.2h-14.2V1640z M530.1,1640h14.2v9.2h-14.2V1640z M548.8,1640H563v9.2h-14.2V1640z
				 M567.5,1640h14.2v9.2h-14.2V1640z M586.3,1640h14.2v9.2h-14.2V1640z M605,1640h14.2v9.2H605V1640z M623.7,1640H638v9.2h-14.2
				V1640z M642.5,1640h14.2v9.2h-14.2V1640z M661.2,1640h14.2v9.2h-14.2V1640z M679.9,1640h14.2v9.2h-14.2V1640z M698.7,1640h14.2
				v9.2h-14.2V1640z M717.4,1640h14.2v9.2h-14.2V1640z M736.1,1640h14.2v9.2h-14.2V1640z M754.8,1640h14.2v9.2h-14.2V1640z
				 M773.6,1640h14.2v9.2h-14.2V1640z M792.3,1640h14.2v9.2h-14.2V1640z M811,1640h14.2v9.2H811V1640z M829.8,1640H844v9.2h-14.2
				V1640z M848.5,1640h14.2v9.2h-14.2V1640z M867.2,1640h14.2v9.2h-14.2V1640z M885.9,1640h14.2v9.2h-14.2V1640z M904.7,1640h14.2
				v9.2h-14.2V1640z M923.4,1640h14.2v9.2h-14.2V1640z M942.1,1640h14.2v9.2h-14.2V1640z M960.9,1640h14.2v9.2h-14.2V1640z
				 M979.6,1640h14.2v9.2h-14.2V1640z M998.3,1640h14.2v9.2h-14.2V1640z M1017.1,1640h14.2v9.2h-14.2V1640z M1035.8,1640h14.2v9.2
				h-14.2V1640z M1054.5,1640h14.2v9.2h-14.2V1640z M1073.2,1640h14.2v9.2h-14.2V1640z M1092,1640h14.2v9.2H1092V1640z M1110.7,1640
				h14.2v9.2h-14.2V1640z M1129.4,1640h14.2v9.2h-14.2V1640z M1148.2,1640h14.2v9.2h-14.2V1640z M1166.9,1640h14.2v9.2h-14.2V1640z
				 M1185.6,1640h14.2v9.2h-14.2V1640z M1204.4,1640h14.2v9.2h-14.2V1640z M1223.1,1640h14.2v9.2h-14.2V1640z M1241.8,1640h14.2v9.2
				h-14.2V1640z M1260.5,1640h14.2v9.2h-14.2V1640z M1279.3,1640h14.2v9.2h-14.2V1640z M1298,1640h14.2v9.2H1298V1640z M1316.7,1640
				h14.2v9.2h-14.2V1640z M1335.5,1640h14.2v9.2h-14.2V1640z M1354.2,1640h14.2v9.2h-14.2V1640z M1372.9,1640h14.2v9.2h-14.2V1640z
				 M1391.6,1640h14.2v9.2h-14.2V1640z M1410.4,1640h14.2v9.2h-14.2V1640z M1429.1,1640h14.2v9.2h-14.2V1640z M1447.8,1640h14.2v9.2
				h-14.2V1640z M1466.6,1640h14.2v9.2h-14.2V1640z M1485.3,1640h14.2v9.2h-14.2V1640z M1504,1640h14.2v9.2H1504V1640z M1522.8,1640
				h14.2v9.2h-14.2V1640z M1541.5,1640h14.2v9.2h-14.2V1640z M1560.2,1640h14.2v9.2h-14.2V1640z M1578.9,1640h14.2v9.2h-14.2V1640z
				 M1597.7,1640h14.2v9.2h-14.2V1640z M1616.4,1640h14.2v9.2h-14.2V1640z M1635.1,1640h14.2v9.2h-14.2V1640z M1653.9,1640h14.2v9.2
				h-14.2V1640z M1672.6,1640h14.2v9.2h-14.2V1640z M1691.3,1640h14.2v9.2h-14.2V1640z M1710,1640h14.2v9.2H1710V1640z M1728.8,1640
				h14.2v9.2h-14.2V1640z M1747.5,1640h14.2v9.2h-14.2V1640z M1766.2,1640h14.2v9.2h-14.2V1640z M1785,1640h14.2v9.2H1785V1640z
				 M1803.7,1640h14.2v9.2h-14.2V1640z M1822.4,1640h14.2v9.2h-14.2V1640z M1841.2,1640h14.2v9.2h-14.2V1640z M1859.9,1640h14.2v9.2
				h-14.2V1640z M1878.6,1640h14.2v9.2h-14.2V1640z M1897.3,1640h14.2v9.2h-14.2V1640z M1916.1,1640h14.2v9.2h-14.2V1640z
				 M1934.8,1640h14.2v9.2h-14.2V1640z M1953.5,1640h14.2v9.2h-14.2V1640z M1972.3,1640h14.2v9.2h-14.2V1640z M1991,1640h14.2v9.2
				H1991V1640z M1991,1637v-9.2h14.2v9.2H1991z M1991,1624.8v-9.2h14.2v9.2H1991z M1991,1612.6v-9.2h14.2v9.2H1991z M1991,1600.4
				v-9.2h14.2v9.2H1991z M1991,1588.2v-9.2h14.2v9.2H1991z M1991,1576v-9.2h14.2v9.2H1991z M1991,1563.8v-9.2h14.2v9.2H1991z
				 M1991,1551.6v-8.4h14.2v8.4H1991z M61.8,1543.1h14.2v8.4H61.8V1543.1z M61.8,1554.6h14.2v9.2H61.8V1554.6z M61.8,1566.8h14.2
				v9.2H61.8V1566.8z M61.8,1579h14.2v9.2H61.8V1579z M61.8,1591.2h14.2v9.2H61.8V1591.2z M61.8,1603.4h14.2v9.2H61.8V1603.4z
				 M61.8,1615.6h14.2v9.2H61.8V1615.6z M61.8,1627.8h14.2v9.2H61.8V1627.8z M61.8,1640h14.2v9.2H61.8V1640z M61.8,1661.4v-9.2h14.2
				v9.2H61.8z M80.6,1661.4v-9.2h14.2v9.2H80.6z M99.3,1661.4v-9.2h14.2v9.2H99.3z M118,1661.4v-9.2h14.2v9.2H118z M136.8,1661.4
				v-9.2H151v9.2H136.8z M155.5,1661.4v-9.2h14.2v9.2H155.5z M174.2,1661.4v-9.2h14.2v9.2H174.2z M193,1661.4v-9.2h14.2v9.2H193z
				 M211.7,1661.4v-9.2h14.2v9.2H211.7z M230.4,1661.4v-9.2h14.2v9.2H230.4z M249.1,1661.4v-9.2h14.2v9.2H249.1z M267.9,1661.4v-9.2
				h14.2v9.2H267.9z M286.6,1661.4v-9.2h14.2v9.2H286.6z M305.3,1661.4v-9.2h14.2v9.2H305.3z M324.1,1661.4v-9.2h14.2v9.2H324.1z
				 M342.8,1661.4v-9.2H357v9.2H342.8z M361.5,1661.4v-9.2h14.2v9.2H361.5z M380.2,1661.4v-9.2h14.2v9.2H380.2z M399,1661.4v-9.2
				h14.2v9.2H399z M417.7,1661.4v-9.2h14.2v9.2H417.7z M436.4,1661.4v-9.2h14.2v9.2H436.4z M455.2,1661.4v-9.2h14.2v9.2H455.2z
				 M473.9,1661.4v-9.2h14.2v9.2H473.9z M492.6,1661.4v-9.2h14.2v9.2H492.6z M511.4,1661.4v-9.2h14.2v9.2H511.4z M530.1,1661.4v-9.2
				h14.2v9.2H530.1z M548.8,1661.4v-9.2H563v9.2H548.8z M567.5,1661.4v-9.2h14.2v9.2H567.5z M586.3,1661.4v-9.2h14.2v9.2H586.3z
				 M605,1661.4v-9.2h14.2v9.2H605z M623.7,1661.4v-9.2H638v9.2H623.7z M642.5,1661.4v-9.2h14.2v9.2H642.5z M661.2,1661.4v-9.2h14.2
				v9.2H661.2z M679.9,1661.4v-9.2h14.2v9.2H679.9z M698.7,1661.4v-9.2h14.2v9.2H698.7z M717.4,1661.4v-9.2h14.2v9.2H717.4z
				 M736.1,1661.4v-9.2h14.2v9.2H736.1z M754.8,1661.4v-9.2h14.2v9.2H754.8z M773.6,1661.4v-9.2h14.2v9.2H773.6z M792.3,1661.4v-9.2
				h14.2v9.2H792.3z M811,1661.4v-9.2h14.2v9.2H811z M829.8,1661.4v-9.2H844v9.2H829.8z M848.5,1661.4v-9.2h14.2v9.2H848.5z
				 M867.2,1661.4v-9.2h14.2v9.2H867.2z M885.9,1661.4v-9.2h14.2v9.2H885.9z M904.7,1661.4v-9.2h14.2v9.2H904.7z M923.4,1661.4v-9.2
				h14.2v9.2H923.4z M942.1,1661.4v-9.2h14.2v9.2H942.1z M960.9,1661.4v-9.2h14.2v9.2H960.9z M979.6,1661.4v-9.2h14.2v9.2H979.6z
				 M998.3,1661.4v-9.2h14.2v9.2H998.3z M1017.1,1661.4v-9.2h14.2v9.2H1017.1z M1035.8,1661.4v-9.2h14.2v9.2H1035.8z M1054.5,1661.4
				v-9.2h14.2v9.2H1054.5z M1073.2,1661.4v-9.2h14.2v9.2H1073.2z M1092,1661.4v-9.2h14.2v9.2H1092z M1110.7,1661.4v-9.2h14.2v9.2
				H1110.7z M1129.4,1661.4v-9.2h14.2v9.2H1129.4z M1148.2,1661.4v-9.2h14.2v9.2H1148.2z M1166.9,1661.4v-9.2h14.2v9.2H1166.9z
				 M1185.6,1661.4v-9.2h14.2v9.2H1185.6z M1204.4,1661.4v-9.2h14.2v9.2H1204.4z M1223.1,1661.4v-9.2h14.2v9.2H1223.1z
				 M1241.8,1661.4v-9.2h14.2v9.2H1241.8z M1260.5,1661.4v-9.2h14.2v9.2H1260.5z M1279.3,1661.4v-9.2h14.2v9.2H1279.3z M1298,1661.4
				v-9.2h14.2v9.2H1298z M1316.7,1661.4v-9.2h14.2v9.2H1316.7z M1335.5,1661.4v-9.2h14.2v9.2H1335.5z M1354.2,1661.4v-9.2h14.2v9.2
				H1354.2z M1372.9,1661.4v-9.2h14.2v9.2H1372.9z M1391.6,1661.4v-9.2h14.2v9.2H1391.6z M1410.4,1661.4v-9.2h14.2v9.2H1410.4z
				 M1429.1,1661.4v-9.2h14.2v9.2H1429.1z M1447.8,1661.4v-9.2h14.2v9.2H1447.8z M1466.6,1661.4v-9.2h14.2v9.2H1466.6z
				 M1485.3,1661.4v-9.2h14.2v9.2H1485.3z M1504,1661.4v-9.2h14.2v9.2H1504z M1522.8,1661.4v-9.2h14.2v9.2H1522.8z M1541.5,1661.4
				v-9.2h14.2v9.2H1541.5z M1560.2,1661.4v-9.2h14.2v9.2H1560.2z M1578.9,1661.4v-9.2h14.2v9.2H1578.9z M1597.7,1661.4v-9.2h14.2
				v9.2H1597.7z M1616.4,1661.4v-9.2h14.2v9.2H1616.4z M1635.1,1661.4v-9.2h14.2v9.2H1635.1z M1653.9,1661.4v-9.2h14.2v9.2H1653.9z
				 M1672.6,1661.4v-9.2h14.2v9.2H1672.6z M1691.3,1661.4v-9.2h14.2v9.2H1691.3z M1710,1661.4v-9.2h14.2v9.2H1710z M1728.8,1661.4
				v-9.2h14.2v9.2H1728.8z M1747.5,1661.4v-9.2h14.2v9.2H1747.5z M1766.2,1661.4v-9.2h14.2v9.2H1766.2z M1785,1661.4v-9.2h14.2v9.2
				H1785z M1803.7,1661.4v-9.2h14.2v9.2H1803.7z M1822.4,1661.4v-9.2h14.2v9.2H1822.4z M1841.2,1661.4v-9.2h14.2v9.2H1841.2z
				 M1859.9,1661.4v-9.2h14.2v9.2H1859.9z M1878.6,1661.4v-9.2h14.2v9.2H1878.6z M1897.3,1661.4v-9.2h14.2v9.2H1897.3z
				 M1916.1,1661.4v-9.2h14.2v9.2H1916.1z M1934.8,1661.4v-9.2h14.2v9.2H1934.8z M1953.5,1661.4v-9.2h14.2v9.2H1953.5z
				 M1972.3,1661.4v-9.2h14.2v9.2H1972.3z M1991,1661.4v-9.2h14.2v9.2H1991z M2023.9,1661.4h-14.2v-9.2h14.2V1661.4z M2023.9,1649.2
				h-14.2v-9.2h14.2V1649.2z M2023.9,1637h-14.2v-9.2h14.2V1637z M2023.9,1624.8h-14.2v-9.2h14.2V1624.8z M2023.9,1612.6h-14.2v-9.2
				h14.2V1612.6z M2023.9,1600.4h-14.2v-9.2h14.2V1600.4z M2023.9,1588.2h-14.2v-9.2h14.2V1588.2z M2023.9,1576h-14.2v-9.2h14.2
				V1576z M2023.9,1563.8h-14.2v-9.2h14.2V1563.8z M2023.9,1551.6h-14.2v-8.4h14.2V1551.6z"/>
			<g>
				<rect y="1405.5" class="st14" width="2028.5" height="3.6"/>
				<rect y="1420.1" class="st14" width="2028.5" height="3.6"/>
				<rect y="1434.8" class="st14" width="2028.5" height="3.6"/>
				<rect y="1449.4" class="st14" width="2028.5" height="3.6"/>
				<rect y="1464.1" class="st14" width="2028.5" height="3.6"/>
				<rect y="1478.7" class="st14" width="2028.5" height="3.6"/>
				<rect y="1493.4" class="st14" width="2028.5" height="3.6"/>
				<rect y="1508" class="st14" width="2028.5" height="3.6"/>
				<rect y="1522.7" class="st14" width="2028.5" height="3.6"/>
				<rect y="1536.4" class="st14" width="2028.5" height="3.6"/>
				<rect x="2023.9" y="1369.4" class="st14" width="4.5" height="168.8"/>
				<rect x="2005.2" y="1369.4" class="st14" width="4.5" height="168.8"/>
				<rect x="1986.5" y="1369.4" class="st14" width="4.5" height="168.8"/>
				<rect x="1967.8" y="1369.4" class="st14" width="4.5" height="168.8"/>
				<rect x="1949" y="1369.4" class="st14" width="4.5" height="168.8"/>
				<rect x="1930.3" y="1369.4" class="st14" width="4.5" height="168.8"/>
				<rect x="1911.6" y="1369.4" class="st14" width="4.5" height="168.8"/>
				<rect x="1892.8" y="1369.4" class="st14" width="4.5" height="168.8"/>
				<rect x="1874.1" y="1369.4" class="st14" width="4.5" height="168.8"/>
				<rect x="1855.4" y="1369.4" class="st14" width="4.5" height="168.8"/>
				<rect x="1836.7" y="1369.4" class="st14" width="4.5" height="168.8"/>
				<rect x="1817.9" y="1369.4" class="st14" width="4.5" height="168.8"/>
				<rect x="1799.2" y="1369.4" class="st14" width="4.5" height="168.8"/>
				<rect x="1780.5" y="1369.4" class="st14" width="4.5" height="168.8"/>
				<rect x="1761.7" y="1369.4" class="st14" width="4.5" height="168.8"/>
				<rect x="1743" y="1369.4" class="st14" width="4.5" height="168.8"/>
				<rect x="1724.3" y="1369.4" class="st14" width="4.5" height="168.8"/>
				<rect x="1705.5" y="1369.4" class="st14" width="4.5" height="168.8"/>
				<rect x="1686.8" y="1369.4" class="st14" width="4.5" height="168.8"/>
				<rect x="1668.1" y="1369.4" class="st14" width="4.5" height="168.8"/>
				<rect x="1649.4" y="1369.4" class="st14" width="4.5" height="168.8"/>
				<rect x="1630.6" y="1369.4" class="st14" width="4.5" height="168.8"/>
				<rect x="1611.9" y="1369.4" class="st14" width="4.5" height="168.8"/>
				<rect x="1593.2" y="1369.4" class="st14" width="4.5" height="168.8"/>
				<rect x="1574.4" y="1369.4" class="st14" width="4.5" height="168.8"/>
				<rect x="1555.7" y="1369.4" class="st14" width="4.5" height="168.8"/>
				<rect x="1537" y="1369.4" class="st14" width="4.5" height="168.8"/>
				<rect x="1518.2" y="1369.4" class="st14" width="4.5" height="168.8"/>
				<rect x="1499.5" y="1369.4" class="st14" width="4.5" height="168.8"/>
				<rect x="1480.8" y="1369.4" class="st14" width="4.5" height="168.8"/>
				<rect x="1462.1" y="1369.4" class="st14" width="4.5" height="168.8"/>
				<rect x="1443.3" y="1369.4" class="st14" width="4.5" height="168.8"/>
				<rect x="1424.6" y="1369.4" class="st14" width="4.5" height="168.8"/>
				<rect x="1405.9" y="1369.4" class="st14" width="4.5" height="168.8"/>
				<rect x="1387.1" y="1369.4" class="st14" width="4.5" height="168.8"/>
				<rect x="1368.4" y="1369.4" class="st14" width="4.5" height="168.8"/>
				<rect x="1349.7" y="1369.4" class="st14" width="4.5" height="168.8"/>
				<rect x="1331" y="1369.4" class="st14" width="4.5" height="168.8"/>
				<rect x="1312.2" y="1369.4" class="st14" width="4.5" height="168.8"/>
				<rect x="1293.5" y="1369.4" class="st14" width="4.5" height="168.8"/>
				<rect x="1274.8" y="1369.4" class="st14" width="4.5" height="168.8"/>
				<rect x="1256" y="1369.4" class="st14" width="4.5" height="168.8"/>
				<rect x="1237.3" y="1369.4" class="st14" width="4.5" height="168.8"/>
				<rect x="1218.6" y="1369.4" class="st14" width="4.5" height="168.8"/>
				<rect x="1199.8" y="1369.4" class="st14" width="4.5" height="168.8"/>
				<rect x="1181.1" y="1369.4" class="st14" width="4.5" height="168.8"/>
				<rect x="1162.4" y="1369.4" class="st14" width="4.5" height="168.8"/>
				<rect x="1143.7" y="1369.4" class="st14" width="4.5" height="168.8"/>
				<rect x="1124.9" y="1369.4" class="st14" width="4.5" height="168.8"/>
				<rect x="1106.2" y="1369.4" class="st14" width="4.5" height="168.8"/>
				<rect x="1087.5" y="1369.4" class="st14" width="4.5" height="168.8"/>
				<rect x="1068.7" y="1369.4" class="st14" width="4.5" height="168.8"/>
				<rect x="1050" y="1369.4" class="st14" width="4.5" height="168.8"/>
				<rect x="1031.3" y="1369.4" class="st14" width="4.5" height="168.8"/>
				<rect x="1012.5" y="1369.4" class="st14" width="4.5" height="168.8"/>
				<rect x="993.8" y="1369.4" class="st14" width="4.5" height="168.8"/>
				<rect x="975.1" y="1369.4" class="st14" width="4.5" height="168.8"/>
				<rect x="956.4" y="1369.4" class="st14" width="4.5" height="168.8"/>
				<rect x="937.6" y="1369.4" class="st14" width="4.5" height="168.8"/>
				<rect x="918.9" y="1369.4" class="st14" width="4.5" height="168.8"/>
				<rect x="900.2" y="1369.4" class="st14" width="4.5" height="168.8"/>
				<rect x="881.4" y="1369.4" class="st14" width="4.5" height="168.8"/>
				<rect x="862.7" y="1369.4" class="st14" width="4.5" height="168.8"/>
				<rect x="844" y="1369.4" class="st14" width="4.5" height="168.8"/>
				<rect x="825.3" y="1369.4" class="st14" width="4.5" height="168.8"/>
				<rect x="806.5" y="1369.4" class="st14" width="4.5" height="168.8"/>
				<rect x="787.8" y="1369.4" class="st14" width="4.5" height="168.8"/>
				<rect x="769.1" y="1369.4" class="st14" width="4.5" height="168.8"/>
				<rect x="750.3" y="1369.4" class="st14" width="4.5" height="168.8"/>
				<rect x="731.6" y="1369.4" class="st14" width="4.5" height="168.8"/>
				<rect x="712.9" y="1369.4" class="st14" width="4.5" height="168.8"/>
				<rect x="694.1" y="1369.4" class="st14" width="4.5" height="168.8"/>
				<rect x="675.4" y="1369.4" class="st14" width="4.5" height="168.8"/>
				<rect x="656.7" y="1369.4" class="st14" width="4.5" height="168.8"/>
				<rect x="638" y="1369.4" class="st14" width="4.5" height="168.8"/>
				<rect x="619.2" y="1369.4" class="st14" width="4.5" height="168.8"/>
				<rect x="600.5" y="1369.4" class="st14" width="4.5" height="168.8"/>
				<rect x="581.8" y="1369.4" class="st14" width="4.5" height="168.8"/>
				<rect x="563" y="1369.4" class="st14" width="4.5" height="168.8"/>
				<rect x="544.3" y="1369.4" class="st14" width="4.5" height="168.8"/>
				<rect x="525.6" y="1369.4" class="st14" width="4.5" height="168.8"/>
				<rect x="506.9" y="1369.4" class="st14" width="4.5" height="168.8"/>
				<rect x="488.1" y="1369.4" class="st14" width="4.5" height="168.8"/>
				<rect x="469.4" y="1369.4" class="st14" width="4.5" height="168.8"/>
				<rect x="450.7" y="1369.4" class="st14" width="4.5" height="168.8"/>
				<rect x="431.9" y="1369.4" class="st14" width="4.5" height="168.8"/>
				<rect x="413.2" y="1369.4" class="st14" width="4.5" height="168.8"/>
				<rect x="394.5" y="1369.4" class="st14" width="4.5" height="168.8"/>
				<rect x="375.7" y="1369.4" class="st14" width="4.5" height="168.8"/>
				<rect x="357" y="1369.4" class="st14" width="4.5" height="168.8"/>
				<rect x="338.3" y="1369.4" class="st14" width="4.5" height="168.8"/>
				<rect x="319.6" y="1369.4" class="st14" width="4.5" height="168.8"/>
				<rect x="300.8" y="1369.4" class="st14" width="4.5" height="168.8"/>
				<rect x="282.1" y="1369.4" class="st14" width="4.5" height="168.8"/>
				<rect x="263.4" y="1369.4" class="st14" width="4.5" height="168.8"/>
				<rect x="244.6" y="1369.4" class="st14" width="4.5" height="168.8"/>
				<rect x="225.9" y="1369.4" class="st14" width="4.5" height="168.8"/>
				<rect x="207.2" y="1369.4" class="st14" width="4.5" height="168.8"/>
				<rect x="188.4" y="1369.4" class="st14" width="4.5" height="168.8"/>
				<rect x="169.7" y="1369.4" class="st14" width="4.5" height="168.8"/>
				<rect x="151" y="1369.4" class="st14" width="4.5" height="168.8"/>
				<rect x="132.3" y="1369.4" class="st14" width="4.5" height="168.8"/>
				<rect x="113.5" y="1369.4" class="st14" width="4.5" height="168.8"/>
				<rect x="94.8" y="1369.4" class="st14" width="4.5" height="168.8"/>
				<rect x="76.1" y="1369.4" class="st14" width="4.5" height="168.8"/>
				<rect x="57.3" y="1369.4" class="st14" width="4.5" height="168.8"/>
				<rect y="1369.4" class="st11" width="2028.5" height="25.1"/>
			</g>
		</g>
		<g>
			<g>
				<polygon class="st15" points="385.5,1747.4 436.8,1871.6 0,1871.6 0,1764.6 				"/>
				<path class="st16" d="M342.5,972.4v49.1l138,33.5c0,0,97.4,13.3,158.2,0l63.1,5.9c0,0,24.9,30.7,36.6,11.3
					c11.7-19.5-5.5-30.4-5.5-30.4s24.2,41.8,42.9,36.9c18.7-4.9,18.7-36.9,6.2-49.3c-12.5-12.5-16.4-24.2-16.4-24.2
					s64.7,39.3,66.3,13s-39-52.8-39-52.8s-25.6-28.3-63.1-37.9c-37.5-9.6-84.3-10.4-84.3-10.4L572.4,943L342.5,972.4z"/>
				
					<ellipse transform="matrix(0.7071 -0.7071 0.7071 0.7071 -485.1303 809.3046)" class="st17" cx="734.4" cy="990.3" rx="69.4" ry="69.4"/>
				<path class="st18" d="M351.4,918.7l97.1,8.4l78.7-15.6c0,0,75.6-46,105.2-43.7c29.6,2.3,120,5.5,120,5.5s52.2,29.6,62.4,53.8
					l11.7,27.3c0,0-12.5,26.5-38.2,0l-32.7-23.4l-71.7-10.1c0,0-42.1,6.2-48.3,31.2c0,0,46.8,11.9,61.6,14.1
					c14.8,2.3,39,19.4,39,19.4s-13.3,33.5-34.3,30.4c-21-3.1-78.7-14.7-78.7-14.7s-131,45.1-169.2-12.6l-111.5-16.4L351.4,918.7z"/>
				<path class="st19" d="M732.1,993.8c2.6-4.6,4-8.1,4-8.1s-18.4-13-32.9-17.9l-6.8,22.5C696.4,990.3,715.7,1003.4,732.1,993.8z"/>
				<path class="st20" d="M0,505c0,0,285.1,26.5,351.4,413.7v633.9c0,0,28.8,162.8,34.1,194.8c5.3,31.9-158.8,150.3-385.5,115V505z"
					/>
				<path class="st21" d="M184.7,838.3L91.7,879c0,0,47,416.6,80,515.6h46.7c0,0,36.5,89.5,133,156.4v-416L184.7,838.3z"/>
				<path class="st18" d="M298.4,841.8c7.3,1.3,252.3,549.5,252.3,549.5s122-13.1,250.2,28.9c8.1,2.6,179,103.2,179,103.2
					l259.4,80.2l-35.4,143.9c0,0-604.4-70-787.1-185.2c0,0-223.3-332.3-295-486.1c-11.6-24.9-15.5-52.6-11.2-79.8
					C121,930.7,159,817.2,298.4,841.8z"/>
				<path class="st16" d="M463.5,1481.7l-153.7-188.8c85.3-23,128.9-84.3,145.5-113.8c-69.7-154.4-152.8-336.5-157-337.3
					C159,817.2,121,930.7,110.7,996.4c-4.3,27.1-0.4,54.9,11.2,79.8c71.7,153.7,295,486.1,295,486.1
					c182.7,115.1,787.1,185.2,787.1,185.2l10.1-41C733.2,1671.6,463.5,1481.7,463.5,1481.7z"/>
				<path class="st22" d="M489.1,879"/>
				<path class="st23" d="M1488.6,1618.8c0,0,5.1-161,69.5-216.9c38.2-33.2,139.3-85.6,248.4-85.7c113.8-0.1,212.9,77.8,241.3,188
					l0,0c20.4,79,1.2,163.1-51.9,225c-46.7,54.4-124,105.8-251.4,120.2C1744.5,1849.4,1551.3,1857.7,1488.6,1618.8z"/>
				<path class="st24" d="M1748,1700c14.2-31.4-6.5-42.2-6.5-42.2l-247.7-20.7c7.5,24.3,16.3,45.9,26.2,64.9
					C1603.3,1710.8,1738.2,1721.5,1748,1700z"/>
				<path class="st25" d="M2047.8,1504.2L2047.8,1504.2c-5.4-21.1-13.5-41-23.7-59.4c6.9,14.5,12.5,29.8,16.6,45.7v0
					c20.4,79,1.2,163.1-51.9,225c-46.7,54.4-124,105.8-251.4,120.2c0,0-140.9,6.1-221-141c78.6,161.1,228.1,154.7,228.1,154.7
					c127.4-14.3,204.7-65.8,251.4-120.2C2049,1667.4,2068.1,1583.2,2047.8,1504.2z"/>
				<path class="st26" d="M1488.6,1618.8c29.9,114,89.5,171.7,143.6,200.9c-75.9-105.5-110.2-277-120.4-338
					C1490.9,1546.3,1488.6,1618.8,1488.6,1618.8z"/>
				<path class="st27" d="M1632.3,1819.7c-75.9-105.5-110.2-277-120.4-338c-2.2,6.7-4.2,13.5-5.9,20.3
					c11.3,60.3,42.4,203,99.8,301.2C1614.7,1809.5,1623.5,1814.9,1632.3,1819.7z"/>
				<path class="st26" d="M1434.4,1649.3c-3.7-2.5-175.4,77.9-234.1,105.5c-15.9,7.5-22.9,26.4-15.5,42.4
					c3.8,8.1,10.3,16.2,21.3,22.4c9.2,5.2,20.4,5.3,29.8,0.5l212.7-106.8C1448.5,1713.4,1470,1673.5,1434.4,1649.3z"/>
				<path class="st27" d="M1434.4,1649.3c-3.7-2.5-175.4,77.9-234.1,105.5c-2.2,1.1-4.3,2.3-6.2,3.8c6.3,17.2,14.9,33.5,30,43.4
					c8,5.2,17.2,8.2,26.5,10.8l198-99.4C1448.5,1713.4,1470,1673.5,1434.4,1649.3z"/>
				<path class="st18" d="M1239.4,1603.5c0,0,166.3-21.5,196-15.5c29.7,5.9,306,29.7,316.9,45.6c10.9,15.8,9.9,37.6-11.9,44.6
					c-21.8,6.9-223.8,0-223.8,0s43.6,40.6,47.5,60.4s1,46.5-20.8,53.5s-52.5-22.8-52.5-22.8s6.9,46.5-38.6,37.6
					c0,0-5.9,33.7-50.5,37.6c-44.6,4-54.5,13.9-107-14.9c-52.5-28.7-90.7-82.2-90.7-82.2L1239.4,1603.5z"/>
				<path class="st19" d="M1741.5,1657.7c10.1-6.2,6-21.1,3.3-28.1c-8-2.7-21.6-5.5-38.9-8.4l-4,36.6H1741.5z"/>
				<path class="st16" d="M1752.3,1633.5c-0.2-0.2-0.4-0.5-0.7-0.7c3.3,8.2,7,24.4-10.6,32.3c-21.5,9.6-234.3,1.8-234.3,1.8
					l9.4,15.8l0.6-4.5l0,0l0,0c0,0,202,6.9,223.8,0S1763.2,1649.4,1752.3,1633.5z"/>
				<path class="st16" d="M1481.6,1744.2c-6.3,39.9-46.4,44.7-46.4,44.7c-28,47.9-83.9,44.7-83.9,44.7c-35.8,3.5-77.5-20-110.5-44.8
					c14.8,14.2,33.3,29.4,54,40.8c52.5,28.7,62.4,18.8,107,14.9s50.5-37.6,50.5-37.6c45.6,8.9,38.6-37.6,38.6-37.6
					s30.7,29.7,52.5,22.8c21.8-6.9,24.8-33.7,20.8-53.5s-47.5-60.4-47.5-60.4l-17.5-32.9C1513.6,1696.2,1481.6,1744.2,1481.6,1744.2
					z"/>
				<path class="st28" d="M179.7,1292.9c0,0,167.5-8.8,283.8-152.1c0,0-98.9-317.5-189-397c-90.2-79.6-188.3-7-209.5,94.6
					C43.7,940,179.7,1292.9,179.7,1292.9z"/>
				<path class="st29" d="M170.2,712.8C119.4,725.3,77.9,776.4,65,838.3C43.7,940,179.7,1292.9,179.7,1292.9s49.6-2.6,113.5-28.1
					C97.2,927.9,141.8,766.7,170.2,712.8z"/>
				<path class="st16" d="M403.7,247.8c1,3.1,39,121,19.5,147.6c-19.5,26.7-60.5,9.2-60.5,9.2L403.7,247.8z"/>
				<path class="st18" d="M0,446.1c0,0,292.7,136.6,336.9,132.1c33.1-3.3,78.6-296.5,99.3-443.7c6.5-45.9-24.7-88.7-70.4-96.6
					L109,23.8c-52.5-9-109-0.2-109,53V446.1z"/>
				<path class="st16" d="M134.9,506.5c83.1,35.9,178.3,74.1,202,71.7L153.2,420.8L134.9,506.5z"/>
				<path class="st18" d="M0,583c0,0,70.8,60.9,153.9,20.7l100.9-308.1H0V583z"/>
			</g>
			<path class="st30" d="M1233.7,1603.2c-13.6,22.1-35.5,66.3-32.5,117.5c0.8,12.6-8.9,23.4-21.5,24.4c-23.1,1.7-58.3,2.1-86.1-7.6
				c-8.9-3.1-15.2-11.2-16.1-20.6c-3.4-37.2-7.4-134.6,41.4-160.6c3.9-2.1,8.3-2.8,12.7-2.1c15.5,2.5,61.3,3.7,94.5,21.4
				C1236.2,1580.9,1239.7,1593.5,1233.7,1603.2z"/>
			<path class="st14" d="M1236.4,1595.9c1.2-8-2.6-16.3-10.2-20.3c-33.2-17.8-79-18.9-94.5-21.4c-4.3-0.7-8.8,0-12.7,2.1
				c-6.2,3.3-11.6,7.8-16.2,13.2c1.4,0.1,2.9,0.1,4.3,0.2C1151.1,1572.2,1193.9,1583.7,1236.4,1595.9z"/>
			<path class="st31" d="M1228.1,1576.7c-11.6,15-36.3,52.5-38,101.8c0,0-60.8,16-114.4-5.9c-0.2,17.7,0.8,33.5,1.8,44.3
				c0.9,9.4,7.2,17.5,16.1,20.6c27.8,9.8,63,9.4,86.1,7.6c12.6-1,22.3-11.8,21.5-24.4c-3.1-51.3,18.8-95.4,32.5-117.5
				C1239.3,1594.2,1236.6,1582.6,1228.1,1576.7z"/>
			<path class="st28" d="M-1.2,489.7c0,0,101.1,71,167.3,76.6l18.6,64.8c0,0-109.4,35.3-184.7-48.2L-1.2,489.7z"/>
			<path class="st29" d="M-0.7,526.9L0,583c75.2,83.4,184.7,48.2,184.7,48.2l-10.5-36.6C96.4,592.8,32.6,552.9-0.7,526.9z"/>
			<path class="st32" d="M221.6,234.7c0,0-72.9-59.3-94.2,23.3s33.6,95.2,57.3,107.7l-12.6,18c0,0-112.7,37.8-132.4,72.8V425
				l-40.8,41.3L0,0h351.4h216.2c0,0-43.7,40.7-78.4,47.9c23.1,1,42.2,7.5,65.2,5.7c-27.3,15.2-57.5,25-88.5,28.7
				c12.4,21,22.9,43.1,31.3,65.9c-18.2-16.3-43.6-24.3-67.9-21.1c-44.5-0.7-85.4,21.2-116,53.5c-30.6,32.3-47,77.6-44,122
				c-15.2-1.2-30.7,0.5-45.3,5C218.2,283.2,220.1,259.7,221.6,234.7z"/>
			<path class="st20" d="M440.9,127.2H0v106h219.6h200.1C419.7,233.2,457.1,170.6,440.9,127.2z"/>
			<path class="st33" d="M218.5,132.3c0,0,179.5,0,224,0c-0.5-1.7-1-3.4-1.6-5.1H0v106h218.5v-9.4V132.3z"/>
			<path class="st16" d="M205.5,257.5c0,0-35.4-45.1-53.7,0c-18.3,45.1,8,84.6,47,87.2l1.8-17.7c0,0-38.8-38.4-7.8-47l12.7,3.7
				V257.5z"/>
		</g>
	</g>
</g>
</svg>
